<svg width="71" height="71" viewBox="0 0 71 71" fill="none" xmlns="http://www.w3.org/2000/svg">
<circle opacity="0.3" cx="35.5" cy="35.5" r="35.5" fill="#1B3281"/>
<circle cx="42.5" cy="42.5" r="27.5" fill="#1B3281" fill-opacity="0.8"/>
<circle cx="35.5" cy="35.5" r="28.5" fill="#1B3281"/>
<circle cx="35.5" cy="35.5" r="28.5" fill="#1B3281"/>
<path d="M48.5626 34.125V47.875C48.564 48.0112 48.524 48.1447 48.4479 48.2576C48.3718 48.3706 48.2631 48.4577 48.1363 48.5074C48.0545 48.5454 47.9652 48.5642 47.8751 48.5625C47.783 48.5625 47.6919 48.5442 47.607 48.5088C47.522 48.4734 47.4449 48.4216 47.3801 48.3563L44.8913 45.8125H32.75C31.4741 45.8111 30.2509 45.3036 29.3487 44.4014C28.4465 43.4992 27.939 42.2759 27.9376 41H38.2501C40.0733 40.9994 41.8216 40.2749 43.1108 38.9857C44.3999 37.6966 45.1245 35.9482 45.125 34.125V29.5188C46.1165 29.816 46.9859 30.4244 47.605 31.2539C48.224 32.0834 48.5597 33.09 48.5626 34.125ZM43.0625 34.125V27.25C43.0611 25.9741 42.5537 24.7508 41.6515 23.8486C40.7493 22.9464 39.526 22.4389 38.2501 22.4375H27.2501C25.9741 22.4389 24.7509 22.9464 23.8487 23.8486C22.9464 24.7508 22.439 25.9741 22.4375 27.25V41C22.4361 41.1362 22.4761 41.2697 22.5522 41.3826C22.6283 41.4956 22.737 41.5827 22.8638 41.6325C22.9456 41.6703 23.0349 41.6892 23.1251 41.6875C23.2171 41.6874 23.3082 41.6692 23.3931 41.6338C23.4781 41.5984 23.5552 41.5466 23.6201 41.4813L26.1088 38.9374H38.2501C39.526 38.936 40.7492 38.4285 41.6514 37.5263C42.5536 36.6241 43.0611 35.4009 43.0625 34.125Z" fill="white"/>
</svg>
