<svg width="219" height="141" viewBox="0 0 219 141" fill="none" xmlns="http://www.w3.org/2000/svg">
<path d="M136.5 213C178.198 213 212 179.197 212 137.5C212 95.8025 178.198 62 136.5 62C94.8025 62 61 95.8025 61 137.5C61 179.197 94.8025 213 136.5 213Z" stroke="white" stroke-width="4" stroke-miterlimit="10"/>
<path d="M221.36 244.266L244.266 221.36L232.726 207.817C238.141 200.51 242.615 192.726 246.138 184.626L263.616 187.844L272 156.554L255.222 150.591C256.225 141.697 256.225 132.712 255.222 123.818L272 117.855L263.616 86.5647L246.138 89.7832C242.608 81.6705 238.126 73.8745 232.699 66.5572L243.832 53.4825L220.926 30.5768L207.851 41.7093C200.522 36.2737 192.713 31.7854 184.585 28.2531L187.685 11.3848L156.395 3.00072L150.634 19.1916C141.71 18.1817 132.696 18.1817 123.773 19.1916L118.012 3L86.7218 11.3841L89.8216 28.2524C81.6943 31.784 73.8846 36.2723 66.5557 41.7086L53.4816 30.5782L30.5757 53.4839L41.7083 66.5586C36.2726 73.8874 31.7843 81.6971 28.252 89.8242L11.3835 86.7245L3 118.014L19.1911 123.775C18.1811 132.698 18.1811 141.712 19.1911 150.635L3 156.396L11.3842 187.686L28.2527 184.586C31.7785 192.7 36.2582 200.499 41.6824 207.817L30.1423 221.361L53.0482 244.266L66.5917 232.726C73.8983 238.142 81.6835 242.615 89.7827 246.138L86.5642 263.616L117.854 272L123.818 255.222C132.712 256.225 141.697 256.225 150.591 255.222L156.555 272L187.845 263.616L184.626 246.138C192.726 242.614 200.511 238.141 207.817 232.726L221.36 244.266Z" stroke="white" stroke-width="4" stroke-miterlimit="10"/>
</svg>
