<svg width="146" height="161" viewBox="0 0 146 161" fill="none" xmlns="http://www.w3.org/2000/svg">
<mask id="path-1-inside-1_194_6232" fill="white">
<path d="M164.265 14.8556C154.271 5.12835 141.203 -0.247239 127.109 0.00874169C113.015 0.264722 99.69 6.40825 90.2088 16.6475L89.6963 17.1594L89.1838 16.6475C79.7025 6.40825 66.3775 0.264722 52.2838 0.00874169C51.7713 0.00874169 51.515 0.00874169 51.0025 0.00874169C37.165 0.00874169 24.6088 5.38433 14.8713 14.8556C5.13375 24.8388 -0.247499 37.8939 0.0087509 51.7168C0.265001 65.7957 5.9025 78.8507 16.1525 88.322L16.665 88.834L16.1525 89.3459C11.2838 93.9536 9.49 100.865 11.7963 107.521C13.8463 113.92 19.4838 118.528 26.1463 119.296H26.6588V119.808C26.1463 124.415 27.94 129.279 31.2713 132.863C34.6025 136.446 39.215 138.494 43.8275 138.494H44.0838H44.5963V139.006C44.8525 144.126 47.415 148.733 51.7713 152.061C56.1275 155.133 61.5088 156.157 66.3775 154.877L66.89 154.621L67.1463 155.133C68.6838 161.276 73.2963 165.884 79.4463 167.42C85.5963 168.956 92.0025 167.42 96.3588 163.068C96.8713 162.556 97.3838 162.044 97.8963 161.532C102.765 156.925 106.096 153.341 106.353 146.174V145.662H106.865C115.834 145.406 123.265 137.726 123.521 128.767V128.255H124.034C133.003 127.999 140.69 120.32 140.946 111.36V110.848H141.459C145.815 110.848 150.428 108.8 153.503 105.217C156.834 101.889 158.371 97.2813 158.371 92.9296V92.6737L163.753 87.2981C183.996 67.3316 183.996 34.8221 164.265 14.8556ZM28.4525 109.312C26.4025 109.312 24.6088 108.544 23.3275 107.265C21.0213 104.961 19.9963 100.865 23.3275 97.0253L28.1963 92.1617C29.4775 90.8818 31.2713 90.1139 33.3213 90.1139C36.14 90.1139 38.7025 91.9057 39.9838 94.4655C41.0088 97.2813 40.4963 100.097 38.4463 102.401L33.5775 107.265C31.7838 108.544 29.99 109.312 28.4525 109.312ZM49.7213 125.695C48.1838 127.487 46.1338 128.511 44.0838 128.255C44.0838 128.255 44.0838 128.255 43.8275 128.255C42.0338 128.255 40.24 127.487 38.9588 126.207C37.6775 124.927 36.9088 122.879 36.9088 121.088C36.9088 119.296 37.6775 117.248 38.9588 115.968L43.8275 111.104C45.1088 109.824 46.9025 109.056 48.9525 109.056C51.7713 109.056 54.3338 110.848 55.615 113.408C56.64 116.224 56.1275 119.04 54.0775 121.343L49.7213 125.695ZM72.015 138.238L67.1463 143.102C65.865 144.382 63.815 145.15 62.0213 145.15C60.2275 145.15 58.4338 144.382 56.8963 143.102C55.615 141.822 54.8463 140.03 54.8463 137.982C54.8463 135.934 55.615 134.143 56.8963 132.863L61.2525 128.511C62.5338 126.975 64.5838 125.951 66.6338 125.951C68.6838 125.951 70.4775 126.719 72.015 127.999C73.2963 129.279 74.065 131.071 74.065 133.119C74.3213 134.91 73.5525 136.702 72.015 138.238ZM94.3088 151.037L89.44 155.901C88.1588 157.181 86.365 157.949 84.315 157.949C82.265 157.949 80.4713 157.181 79.19 155.901C77.9088 154.621 77.14 152.829 77.14 150.781C77.14 148.733 77.9088 146.942 79.19 145.662L84.0588 140.798C85.34 139.518 87.1338 138.75 89.1838 138.75C91.2338 138.75 93.0275 139.518 94.3088 140.798C95.59 142.078 96.3588 143.87 96.3588 145.918C96.3588 147.709 95.59 149.757 94.3088 151.037ZM146.328 98.3052C145.046 99.5851 143.253 100.353 141.203 100.353C139.153 100.353 137.359 99.5851 136.078 98.3052L110.709 72.9632L103.534 80.1306L128.903 105.473C130.184 106.753 130.953 108.544 130.953 110.592C130.953 112.64 130.184 114.432 128.903 115.712C127.621 116.992 125.828 117.76 123.778 117.76C121.728 117.76 119.934 116.992 118.653 115.712L93.2838 90.3698L86.1087 97.5373L111.478 122.879C114.296 125.695 114.296 130.303 111.478 133.119C110.196 134.398 108.146 135.166 106.353 135.166C104.815 135.166 103.021 134.654 101.74 133.375L101.228 132.863C96.8713 128.767 90.465 126.975 84.5713 128.511L84.0588 128.767L83.8025 128.255C82.0088 120.832 74.5775 115.2 66.89 115.456H66.3775V114.944C66.1213 107.009 59.2025 99.8411 51.2588 98.8172H50.7463V98.3052C51.2588 91.9057 48.1838 86.0182 42.5463 82.4345C36.9088 78.8507 30.2463 78.5947 24.6088 81.9225H24.3525L24.0963 81.6665C15.64 74.2431 10.515 63.4919 10.2588 51.9728C10.0025 40.7096 14.1025 29.9585 22.0463 22.0231C29.99 14.0877 40.7525 9.736 52.0275 10.248C63.3025 10.5039 74.3213 15.6235 81.7525 24.0709L82.265 24.5829L67.915 38.9178L78.9338 49.9249C87.39 58.3723 100.715 59.6522 110.709 53.5087L111.221 53.2527L111.478 53.5087L146.328 88.322C149.146 91.1378 149.146 95.4895 146.328 98.3052ZM156.834 79.8746L154.528 82.1785L154.015 81.6665C153.759 81.4105 153.503 81.1545 153.503 81.1545L111.478 38.9178L107.89 42.5015C101.996 48.389 92.2588 48.389 86.365 42.5015L82.5213 38.6618L99.1775 22.0231C119.678 3.08051 143.509 8.96806 156.834 22.279C170.159 35.59 175.796 59.3962 156.834 79.8746Z"/>
</mask>
<path d="M164.265 14.8556C154.271 5.12835 141.203 -0.247239 127.109 0.00874169C113.015 0.264722 99.69 6.40825 90.2088 16.6475L89.6963 17.1594L89.1838 16.6475C79.7025 6.40825 66.3775 0.264722 52.2838 0.00874169C51.7713 0.00874169 51.515 0.00874169 51.0025 0.00874169C37.165 0.00874169 24.6088 5.38433 14.8713 14.8556C5.13375 24.8388 -0.247499 37.8939 0.0087509 51.7168C0.265001 65.7957 5.9025 78.8507 16.1525 88.322L16.665 88.834L16.1525 89.3459C11.2838 93.9536 9.49 100.865 11.7963 107.521C13.8463 113.92 19.4838 118.528 26.1463 119.296H26.6588V119.808C26.1463 124.415 27.94 129.279 31.2713 132.863C34.6025 136.446 39.215 138.494 43.8275 138.494H44.0838H44.5963V139.006C44.8525 144.126 47.415 148.733 51.7713 152.061C56.1275 155.133 61.5088 156.157 66.3775 154.877L66.89 154.621L67.1463 155.133C68.6838 161.276 73.2963 165.884 79.4463 167.42C85.5963 168.956 92.0025 167.42 96.3588 163.068C96.8713 162.556 97.3838 162.044 97.8963 161.532C102.765 156.925 106.096 153.341 106.353 146.174V145.662H106.865C115.834 145.406 123.265 137.726 123.521 128.767V128.255H124.034C133.003 127.999 140.69 120.32 140.946 111.36V110.848H141.459C145.815 110.848 150.428 108.8 153.503 105.217C156.834 101.889 158.371 97.2813 158.371 92.9296V92.6737L163.753 87.2981C183.996 67.3316 183.996 34.8221 164.265 14.8556ZM28.4525 109.312C26.4025 109.312 24.6088 108.544 23.3275 107.265C21.0213 104.961 19.9963 100.865 23.3275 97.0253L28.1963 92.1617C29.4775 90.8818 31.2713 90.1139 33.3213 90.1139C36.14 90.1139 38.7025 91.9057 39.9838 94.4655C41.0088 97.2813 40.4963 100.097 38.4463 102.401L33.5775 107.265C31.7838 108.544 29.99 109.312 28.4525 109.312ZM49.7213 125.695C48.1838 127.487 46.1338 128.511 44.0838 128.255C44.0838 128.255 44.0838 128.255 43.8275 128.255C42.0338 128.255 40.24 127.487 38.9588 126.207C37.6775 124.927 36.9088 122.879 36.9088 121.088C36.9088 119.296 37.6775 117.248 38.9588 115.968L43.8275 111.104C45.1088 109.824 46.9025 109.056 48.9525 109.056C51.7713 109.056 54.3338 110.848 55.615 113.408C56.64 116.224 56.1275 119.04 54.0775 121.343L49.7213 125.695ZM72.015 138.238L67.1463 143.102C65.865 144.382 63.815 145.15 62.0213 145.15C60.2275 145.15 58.4338 144.382 56.8963 143.102C55.615 141.822 54.8463 140.03 54.8463 137.982C54.8463 135.934 55.615 134.143 56.8963 132.863L61.2525 128.511C62.5338 126.975 64.5838 125.951 66.6338 125.951C68.6838 125.951 70.4775 126.719 72.015 127.999C73.2963 129.279 74.065 131.071 74.065 133.119C74.3213 134.91 73.5525 136.702 72.015 138.238ZM94.3088 151.037L89.44 155.901C88.1588 157.181 86.365 157.949 84.315 157.949C82.265 157.949 80.4713 157.181 79.19 155.901C77.9088 154.621 77.14 152.829 77.14 150.781C77.14 148.733 77.9088 146.942 79.19 145.662L84.0588 140.798C85.34 139.518 87.1338 138.75 89.1838 138.75C91.2338 138.75 93.0275 139.518 94.3088 140.798C95.59 142.078 96.3588 143.87 96.3588 145.918C96.3588 147.709 95.59 149.757 94.3088 151.037ZM146.328 98.3052C145.046 99.5851 143.253 100.353 141.203 100.353C139.153 100.353 137.359 99.5851 136.078 98.3052L110.709 72.9632L103.534 80.1306L128.903 105.473C130.184 106.753 130.953 108.544 130.953 110.592C130.953 112.64 130.184 114.432 128.903 115.712C127.621 116.992 125.828 117.76 123.778 117.76C121.728 117.76 119.934 116.992 118.653 115.712L93.2838 90.3698L86.1087 97.5373L111.478 122.879C114.296 125.695 114.296 130.303 111.478 133.119C110.196 134.398 108.146 135.166 106.353 135.166C104.815 135.166 103.021 134.654 101.74 133.375L101.228 132.863C96.8713 128.767 90.465 126.975 84.5713 128.511L84.0588 128.767L83.8025 128.255C82.0088 120.832 74.5775 115.2 66.89 115.456H66.3775V114.944C66.1213 107.009 59.2025 99.8411 51.2588 98.8172H50.7463V98.3052C51.2588 91.9057 48.1838 86.0182 42.5463 82.4345C36.9088 78.8507 30.2463 78.5947 24.6088 81.9225H24.3525L24.0963 81.6665C15.64 74.2431 10.515 63.4919 10.2588 51.9728C10.0025 40.7096 14.1025 29.9585 22.0463 22.0231C29.99 14.0877 40.7525 9.736 52.0275 10.248C63.3025 10.5039 74.3213 15.6235 81.7525 24.0709L82.265 24.5829L67.915 38.9178L78.9338 49.9249C87.39 58.3723 100.715 59.6522 110.709 53.5087L111.221 53.2527L111.478 53.5087L146.328 88.322C149.146 91.1378 149.146 95.4895 146.328 98.3052ZM156.834 79.8746L154.528 82.1785L154.015 81.6665C153.759 81.4105 153.503 81.1545 153.503 81.1545L111.478 38.9178L107.89 42.5015C101.996 48.389 92.2588 48.389 86.365 42.5015L82.5213 38.6618L99.1775 22.0231C119.678 3.08051 143.509 8.96806 156.834 22.279C170.159 35.59 175.796 59.3962 156.834 79.8746Z" fill="#1B3281" stroke="white" stroke-width="5" mask="url(#path-1-inside-1_194_6232)"/>
</svg>
