<svg width="140" height="158" viewBox="0 0 140 158" fill="none" xmlns="http://www.w3.org/2000/svg">
<path d="M103.937 136.481C103.937 142.22 99.2906 146.593 93.8245 146.593C88.0852 146.593 83.7124 141.947 83.7124 136.481C83.7124 131.015 88.3585 126.369 93.8245 126.369C99.2906 126.369 103.937 130.742 103.937 136.481Z" stroke="white" stroke-width="5" stroke-miterlimit="10"/>
<path d="M101.384 3H45.3574" stroke="white" stroke-width="5" stroke-miterlimit="10"/>
<path d="M52.1011 3V60.6667L4 167.254H142.564L94.4629 60.6667V3" stroke="white" stroke-width="5" stroke-miterlimit="10"/>
<path d="M113.539 102.965H90.3084C90.3084 100.232 89.2152 97.7724 87.3021 95.8593C83.2026 91.7598 76.9167 91.7598 72.8171 95.8593C70.904 97.7724 69.8108 100.505 69.8108 102.965H32.915" stroke="white" stroke-width="5" stroke-miterlimit="10"/>
</svg>
