<svg width="162" height="149" viewBox="0 0 162 149" fill="none" xmlns="http://www.w3.org/2000/svg">
<path d="M42.7327 68.3985V70.8887L44.934 69.7244L106.24 37.298V68.3985V70.8933L108.443 69.7233L169.5 37.3026V155.5H1.5V1.5H42.7327V68.3985ZM9.63728 7.99302H8.13728V9.49302V22.6372V24.1372H9.63728H34.5954H36.0954V22.6372V9.49302V7.99302H34.5954H9.63728ZM162.863 50.6295V48.1431L160.663 49.3025L99.6026 81.4904V50.386V47.8958L97.4013 49.0601L36.0954 81.4865V32.1302V30.6302H34.5954H9.63728H8.13728V32.1302V147.507V149.007H9.63728H161.363H162.863V147.507V50.6295Z" fill="white" stroke="#1B3281" stroke-width="3"/>
<path d="M138.5 126.75H140V125.25V111.75V110.25H138.5H119.5H118V111.75V125.25V126.75H119.5H138.5ZM146.5 133.5H111.5V103.5H146.5V133.5Z" fill="white" stroke="#1B3281" stroke-width="3"/>
<path d="M74.2564 126.75H75.7564V125.25V111.75V110.25H74.2564H55.2564H53.7564V111.75V125.25V126.75H55.2564H74.2564ZM82.5 133.5H47.5V103.5H82.5V133.5Z" fill="white" stroke="#1B3281" stroke-width="3"/>
</svg>
