<svg width="181" height="169" viewBox="0 0 181 169" fill="none" xmlns="http://www.w3.org/2000/svg">
<path d="M178.396 63.6691V103.099L117.498 147L57 103.099V63.6691" stroke="#1B3281" stroke-width="5" stroke-miterlimit="10"/>
<path d="M178.396 86.3022V47.1683L117.498 4L57 47.1683V86.3022" stroke="#1B3281" stroke-width="5" stroke-miterlimit="10"/>
<path d="M124.267 82.4832H110.729V87.651H124.076V92.0805H110.729V105H105.39V92.0805H97V87.651H105.39V82.4832H97V78.0537H105.39V50H124.267C128.081 50 131.513 50.7383 133.992 52.2148C136.661 53.6913 138.568 55.5369 139.903 58.1208C141.237 60.5201 142 63.2886 142 66.4262C142 69.3792 141.237 72.1476 139.903 74.7315C138.568 77.1309 136.47 79.1611 133.992 80.6376C131.513 81.745 128.081 82.4832 124.267 82.4832ZM110.729 78.0537H124.267C126.936 78.0537 129.415 77.5 131.131 76.5772C133.038 75.6544 134.373 74.1779 135.517 72.3322C136.47 70.4866 137.042 68.4564 137.042 66.2416C137.042 64.0268 136.47 61.9966 135.517 60.151C134.564 58.3054 133.038 57.0134 131.131 55.906C129.225 54.9832 126.936 54.4295 124.267 54.4295H110.729V78.0537Z" fill="#1B3281"/>
<path d="M124.267 82.4832H110.729V87.651H124.076V92.0805H110.729V105H105.39V92.0805H97V87.651H105.39V82.4832H97V78.0537H105.39V50H124.267C128.081 50 131.513 50.7383 133.992 52.2148C136.661 53.6913 138.568 55.5369 139.903 58.1208C141.237 60.5201 142 63.2886 142 66.4262C142 69.3792 141.237 72.1476 139.903 74.7315C138.568 77.1309 136.47 79.1611 133.992 80.6376C131.513 81.745 128.081 82.4832 124.267 82.4832ZM110.729 78.0537H124.267C126.936 78.0537 129.415 77.5 131.131 76.5772C133.038 75.6544 134.373 74.1779 135.517 72.3322C136.47 70.4866 137.042 68.4564 137.042 66.2416C137.042 64.0268 136.47 61.9966 135.517 60.151C134.564 58.3054 133.038 57.0134 131.131 55.906C129.225 54.9832 126.936 54.4295 124.267 54.4295H110.729V78.0537Z" stroke="#1B3281"/>
<path d="M78 162V186.605L40.3762 214L3 186.605V162" stroke="#1B3281" stroke-width="5" stroke-miterlimit="10"/>
<path d="M78 176V151.275L40.3762 124L3 151.275V176" stroke="#1B3281" stroke-width="5" stroke-miterlimit="10"/>
</svg>
