<svg width="46" height="46" viewBox="0 0 46 46" fill="none" xmlns="http://www.w3.org/2000/svg">
<path d="M37.8242 9.927C37.8242 10.3786 37.8242 24.9158 37.8242 25.309L37.5926 25.5406L33.7812 21.7293C22.7262 32.7845 23.4026 32.0701 23 32.6042C22.5992 32.0724 23.284 32.7946 12.2188 21.7293L8.4074 25.5407L8.17578 25.3091C8.17578 24.9097 8.17578 10.3671 8.17578 9.92709H0V28.6488C0 29.8698 0.332062 31.0686 0.964023 32.1218L8.76525 44.9662C16.2066 44.9662 31.1923 44.9662 37.2419 44.9624L37.6341 44.3086C37.7399 44.1324 42.5221 36.26 45.0397 32.1156C45.6679 31.0684 46 29.8698 46 28.6486V9.927H37.8242ZM21.6523 42.2884C18.3559 42.2885 14.5639 42.2886 10.2816 42.2886L3.27148 30.7289C2.8945 30.1005 2.69531 29.3814 2.69531 28.6486V12.6223H5.48047C5.48047 13.1652 5.48047 25.8232 5.48047 26.4255L13.9612 34.9061L15.867 33.0002L10.3133 27.4465L12.2188 25.5411L20.4682 33.7905C21.2319 34.5542 21.6523 35.5694 21.6523 36.6493V42.2884ZM43.3047 28.6486C43.3047 29.3812 43.1055 30.1005 42.7324 30.7224C42.4756 31.1451 37.2225 39.81 35.7195 42.2858C33.5572 42.2869 29.7534 42.2877 24.3477 42.2881V36.6492C24.3477 35.5693 24.7682 34.554 25.5318 33.7904L33.7812 25.5411L35.6867 27.4465L30.133 33.0002L32.0388 34.9061L40.5195 26.4255C40.5195 25.8254 40.5195 13.1642 40.5195 12.6224H43.3047V28.6486Z" fill="black"/>
<path d="M27.4959 7.11824C25.5625 4.17209 23.8748 2.12536 23 1.03394C22.1354 2.11269 20.4446 4.1614 18.5041 7.11833C16.0884 10.7995 14.9141 13.4815 14.9141 15.3177C14.9141 19.7762 18.5414 23.4036 23 23.4036C27.4586 23.4036 31.0859 19.7762 31.0859 15.3177C31.0859 13.4815 29.9116 10.7995 27.4959 7.11824ZM23 20.7083C20.0276 20.7083 17.6094 18.29 17.6094 15.3177C17.6094 13.2667 20.5854 8.6172 23 5.39181C25.4146 8.6172 28.3906 13.2667 28.3906 15.3177C28.3906 18.29 25.9724 20.7083 23 20.7083Z" fill="black"/>
<path d="M25.224 10.9919C24.2676 9.54315 23.4328 8.53669 23 8C22.5723 8.53046 21.7359 9.53789 20.776 10.9919C19.5809 12.8021 19 14.1209 19 15.0238C19 17.2163 20.7944 19 23 19C25.2056 19 27 17.2163 27 15.0238C27 14.1209 26.4191 12.8021 25.224 10.9919Z" fill="#1B3281"/>
</svg>
