<svg width="49" height="46" viewBox="0 0 49 46" fill="none" xmlns="http://www.w3.org/2000/svg">
<g clip-path="url(#clip0_194_6112)">
<path d="M21.0712 6.93041C19.3211 5.25032 16.941 4.34027 14.5608 4.27026C14.4908 4.27026 14.4208 4.27026 14.3508 4.27026C11.7607 4.27026 9.31056 5.25032 7.42045 7.14042C5.53035 9.03053 4.55029 11.5507 4.55029 14.2108C4.6203 16.941 5.67035 19.3911 7.63046 21.2112L18.7611 33.1119L22.9613 35.562C23.0313 35.492 29.4717 38.3622 29.6117 38.2922C30.5217 37.3821 40.7423 27.2315 40.7423 27.2315L27.7216 13.7908L24.9214 13.5108L21.2812 10.0106L22.1213 8.12048L21.0712 6.93041Z" fill="#1B3281"/>
<path d="M44.8724 4.05993C42.1423 1.39978 38.5721 -0.0702988 34.7219 -0.000294926C30.8717 0.069709 27.2315 1.7498 24.6413 4.54996L24.5013 4.68997L24.3613 4.54996C21.7712 1.7498 18.131 0.069709 14.2807 -0.000294926C14.1407 -0.000294926 14.0707 -0.000294926 13.9307 -0.000294926C10.1505 -0.000294926 6.72032 1.46979 4.06017 4.05993C1.40003 6.79008 -0.0700547 10.3603 -5.07853e-05 14.1405C0.0699531 17.9907 1.61004 21.5609 4.41019 24.151L4.5502 24.2911L4.41019 24.4311C3.08012 25.6911 2.59009 27.5812 3.22013 29.4013C3.78016 31.1514 5.32024 32.4115 7.14035 32.6215H7.28035V32.7615C7.14035 34.0216 7.63037 35.3517 8.54042 36.3317C9.45047 37.3118 10.7105 37.8718 11.9706 37.8718H12.0406H12.1806V38.0118C12.2506 39.4119 12.9507 40.672 14.1407 41.582C15.3308 42.4221 16.8009 42.7021 18.131 42.3521L18.271 42.2821L18.341 42.4221C18.761 44.1022 20.0211 45.3622 21.7012 45.7823C23.3812 46.2023 25.1313 45.7822 26.3214 44.5922C26.4614 44.4522 26.6014 44.3122 26.7414 44.1722C28.0715 42.9121 28.9816 41.932 29.0516 39.9719V39.8319H29.1916C31.6417 39.7619 33.6718 37.6618 33.7418 35.2117V35.0717H33.8818C36.332 35.0016 38.4321 32.9015 38.5021 30.4514V30.3114H38.6421C39.8322 30.3114 41.0922 29.7514 41.9323 28.7713C42.8423 27.8613 43.2624 26.6012 43.2624 25.4111V25.3411L44.7324 23.871C50.2627 18.4107 50.2627 9.52024 44.8724 4.05993ZM7.77038 29.8914C7.21035 29.8914 6.72032 29.6814 6.3703 29.3313C5.74027 28.7013 5.46025 27.5812 6.3703 26.5312L7.70038 25.2011C8.0504 24.8511 8.54042 24.6411 9.10046 24.6411C9.8705 24.6411 10.5705 25.1311 10.9206 25.8311C11.2006 26.6012 11.0606 27.3712 10.5005 28.0013L9.17046 29.3313C8.68043 29.6814 8.1904 29.8914 7.77038 29.8914ZM13.5807 34.3716C13.1607 34.8616 12.6006 35.1417 12.0406 35.0717C12.0406 35.0717 12.0406 35.0717 11.9706 35.0717C11.4806 35.0717 10.9906 34.8616 10.6405 34.5116C10.2905 34.1616 10.0805 33.6016 10.0805 33.1115C10.0805 32.6215 10.2905 32.0615 10.6405 31.7115L11.9706 30.3814C12.3206 30.0314 12.8107 29.8214 13.3707 29.8214C14.1407 29.8214 14.8408 30.3114 15.1908 31.0114C15.4708 31.7815 15.3308 32.5515 14.7708 33.1815L13.5807 34.3716ZM19.671 37.8018L18.341 39.1319C17.9909 39.4819 17.4309 39.6919 16.9409 39.6919C16.4509 39.6919 15.9608 39.4819 15.5408 39.1319C15.1908 38.7819 14.9808 38.2918 14.9808 37.7318C14.9808 37.1718 15.1908 36.6817 15.5408 36.3317L16.7309 35.1417C17.0809 34.7216 17.6409 34.4416 18.201 34.4416C18.761 34.4416 19.251 34.6516 19.671 35.0017C20.0211 35.3517 20.2311 35.8417 20.2311 36.4017C20.3011 36.8918 20.0911 37.3818 19.671 37.8018ZM25.7614 41.302L24.4313 42.6321C24.0813 42.9821 23.5913 43.1921 23.0312 43.1921C22.4712 43.1921 21.9812 42.9821 21.6312 42.6321C21.2811 42.2821 21.0711 41.792 21.0711 41.232C21.0711 40.672 21.2811 40.1819 21.6312 39.8319L22.9612 38.5018C23.3112 38.1518 23.8013 37.9418 24.3613 37.9418C24.9213 37.9418 25.4114 38.1518 25.7614 38.5018C26.1114 38.8519 26.3214 39.3419 26.3214 39.9019C26.3214 40.3919 26.1114 40.952 25.7614 41.302ZM39.9722 26.8812C39.6222 27.2312 39.1321 27.4412 38.5721 27.4412C38.0121 27.4412 37.522 27.2312 37.172 26.8812L30.2416 19.9508L28.2815 21.9109L35.2119 28.8413C35.5619 29.1913 35.7719 29.6814 35.7719 30.2414C35.7719 30.8014 35.5619 31.2914 35.2119 31.6415C34.8619 31.9915 34.3719 32.2015 33.8118 32.2015C33.2518 32.2015 32.7618 31.9915 32.4118 31.6415L25.4814 24.7111L23.5213 26.6712L30.4516 33.6016C31.2217 34.3716 31.2217 35.6317 30.4516 36.4017C30.1016 36.7517 29.5416 36.9618 29.0516 36.9618C28.6315 36.9618 28.1415 36.8218 27.7915 36.4717L27.6515 36.3317C26.4614 35.2117 24.7113 34.7216 23.1012 35.1417L22.9612 35.2117L22.8912 35.0717C22.4012 33.0415 20.3711 31.5015 18.271 31.5715H18.131V31.4315C18.061 29.2613 16.1708 27.3012 14.0007 27.0212H13.8607V26.8812C14.0007 25.1311 13.1607 23.521 11.6206 22.541C10.0805 21.5609 8.26041 21.4909 6.72032 22.4009H6.65032L6.58031 22.3309C4.27019 20.3008 2.87011 17.3607 2.8001 14.2105C2.7301 11.1303 3.85016 8.19016 6.02028 6.02004C8.1904 3.84992 11.1306 2.65985 14.2107 2.79986C17.2909 2.86986 20.3011 4.26994 22.3312 6.58007L22.4712 6.72008L18.551 10.6403L21.5611 13.6505C23.8713 15.9606 27.5115 16.3106 30.2416 14.6305L30.3816 14.5605L30.4516 14.6305L39.9722 24.151C40.7422 24.9211 40.7422 26.1112 39.9722 26.8812ZM42.8423 21.8409L42.2123 22.471L42.0723 22.3309C42.0023 22.2609 41.9323 22.1909 41.9323 22.1909L30.4516 10.6403L29.4716 11.6204C27.8615 13.2304 25.2013 13.2304 23.5913 11.6204L22.5412 10.5703L27.0915 6.02004C32.6918 0.839752 39.2021 2.44984 42.8423 6.09004C46.4825 9.73025 48.0226 16.2406 42.8423 21.8409Z" fill="black"/>
</g>
<defs>
<clipPath id="clip0_194_6112">
<rect width="48.9327" height="45.9926" fill="white"/>
</clipPath>
</defs>
</svg>
