<svg width="47" height="47" viewBox="0 0 47 47" fill="none" xmlns="http://www.w3.org/2000/svg">
<path d="M47 18.224L31.4344 14.9388L23.5 1.15039L15.5657 14.9388L0 18.224L10.662 30.0307L8.97627 45.8495L23.5 39.3581L38.0238 45.8495L36.3381 30.0308L47 18.224ZM23.5 36.1552L12.4224 41.1064L13.7081 29.041L5.57588 20.0356L17.4482 17.53L23.5 7.01312L29.5519 17.53L41.4241 20.0357L33.2919 29.0411L34.5776 41.1065L23.5 36.1552Z" fill="black"/>
<path d="M36 21.7852L27.7204 20.0948L23.5 13L19.2796 20.0948L11 21.7852L16.6713 27.8604L15.7746 36L23.5 32.6598L31.2254 36L30.3288 27.8604L36 21.7852Z" fill="#1B3281"/>
</svg>
