<svg width="40" height="46" viewBox="0 0 40 46" fill="none" xmlns="http://www.w3.org/2000/svg">
<g clip-path="url(#clip0_194_14570)">
<path d="M27.7213 36.0903C27.7213 37.5603 26.5312 38.6804 25.1311 38.6804C23.6611 38.6804 22.541 37.4903 22.541 36.0903C22.541 34.6902 23.7311 33.5001 25.1311 33.5001C26.5312 33.5001 27.7213 34.6202 27.7213 36.0903Z" stroke="black" stroke-width="2.80016" stroke-miterlimit="10"/>
<path d="M27.0676 1.90051H12.7168" stroke="black" stroke-width="2.80016" stroke-miterlimit="10"/>
<path d="M14.4437 1.90039V16.6712L2.12305 43.9727H37.615L25.2943 16.6712V1.90039" stroke="black" stroke-width="2.80016" stroke-miterlimit="10"/>
<path d="M30.1804 27.5057H24.2301C24.2301 26.8057 23.9501 26.1756 23.4601 25.6856C22.41 24.6356 20.7999 24.6356 19.7499 25.6856C19.2598 26.1756 18.9798 26.8757 18.9798 27.5057H9.5293" stroke="black" stroke-width="2.80016" stroke-miterlimit="10"/>
<path d="M22.4717 3.86047H16.9414V16.8812H22.4717V3.86047Z" fill="#1B3281"/>
<path d="M16.9416 16.8811L14.7715 22.9014H25.0621L22.4719 16.8811" fill="#1B3281"/>
</g>
<defs>
<clipPath id="clip0_194_14570">
<rect width="39.8322" height="44.8725" fill="white" transform="translate(0 0.500366)"/>
</clipPath>
</defs>
</svg>
