<svg width="45" height="45" viewBox="0 0 45 45" fill="none" xmlns="http://www.w3.org/2000/svg">
<g clip-path="url(#clip0_194_14675)">
<path d="M11.25 22.5C11.25 25.4837 12.4353 28.3452 14.545 30.455C16.6548 32.5647 19.5163 33.75 22.5 33.75V32.3438C19.8893 32.3438 17.3855 31.3066 15.5394 29.4606C13.6934 27.6145 12.6562 25.1107 12.6562 22.5C12.6562 19.8893 13.6934 17.3855 15.5394 15.5394C17.3855 13.6934 19.8893 12.6562 22.5 12.6562V11.25C19.5163 11.25 16.6548 12.4353 14.545 14.545C12.4353 16.6548 11.25 19.5163 11.25 22.5Z" fill="#1B3281" stroke="#1B3281"/>
<path d="M1.40625 26.7188H5.43516C5.85609 28.434 6.5366 30.0748 7.45313 31.5844L4.59844 34.4532C4.46995 34.5879 4.39712 34.7662 4.39453 34.9524C4.394 35.0449 4.41173 35.1367 4.44672 35.2223C4.48171 35.308 4.53327 35.3859 4.59844 35.4516L9.56953 40.4227C9.6349 40.4886 9.71266 40.5409 9.79834 40.5766C9.88403 40.6123 9.97593 40.6307 10.0687 40.6307C10.1616 40.6307 10.2535 40.6123 10.3392 40.5766C10.4248 40.5409 10.5026 40.4886 10.568 40.4227L13.3805 37.568C14.9023 38.4805 16.5551 39.1539 18.2812 39.5649V43.5938C18.2812 43.7803 18.3553 43.9591 18.4872 44.091C18.6191 44.2228 18.7979 44.2969 18.9844 44.2969H24.6094C24.7681 44.3024 24.924 44.2539 25.0517 44.1594C25.1794 44.0649 25.2713 43.93 25.3125 43.7766L28.125 33.2297L26.7188 32.8641L24.068 42.8907H19.6875V39.0024C19.6911 38.8389 19.6377 38.6792 19.5363 38.5509C19.4349 38.4225 19.2919 38.3336 19.132 38.2993C17.1969 37.8985 15.3551 37.1351 13.7039 36.0493C13.5684 35.9599 13.4061 35.9202 13.2446 35.9368C13.0831 35.9535 12.9324 36.0255 12.818 36.1407L10.0687 38.8969L6.08906 34.9313L8.84531 32.1821C8.96048 32.0677 9.03251 31.9169 9.04917 31.7554C9.06583 31.5939 9.0261 31.4317 8.93672 31.2961C7.85217 29.6468 7.0888 27.8076 6.68672 25.875C6.65385 25.7138 6.56548 25.5693 6.43701 25.4665C6.30854 25.3637 6.14809 25.3092 5.98359 25.3125H2.10938V19.6875H5.99766C6.16215 19.6909 6.3226 19.6364 6.45107 19.5336C6.57955 19.4308 6.66791 19.2863 6.70078 19.125C7.10286 17.1925 7.86623 15.3532 8.95078 13.704C9.04016 13.5684 9.0799 13.4062 9.06324 13.2447C9.04657 13.0832 8.97455 12.9324 8.85938 12.818L6.08906 10.0688L10.0687 6.08911L12.818 8.84536C12.9324 8.96053 13.0831 9.03256 13.2446 9.04922C13.4061 9.06588 13.5684 9.02615 13.7039 8.93676C15.3551 7.85095 17.1969 7.08751 19.132 6.68677C19.2919 6.65246 19.4349 6.56348 19.5363 6.43515C19.6377 6.30681 19.6911 6.14715 19.6875 5.98364V2.10942H24.068L26.7188 12.136L28.125 11.7704L25.3125 1.22348C25.2713 1.07009 25.1794 0.935163 25.0517 0.840683C24.924 0.746202 24.7681 0.697734 24.6094 0.703171H18.9844C18.7979 0.703171 18.6191 0.77725 18.4872 0.909112C18.3553 1.04097 18.2812 1.21982 18.2812 1.4063V5.4352C16.5661 5.85614 14.9253 6.53665 13.4156 7.45317L10.5469 4.59848C10.4815 4.53258 10.4037 4.48027 10.3181 4.44458C10.2324 4.40888 10.1405 4.3905 10.0477 4.3905C9.95483 4.3905 9.86293 4.40888 9.77725 4.44458C9.69157 4.48027 9.6138 4.53258 9.54844 4.59848L4.59844 9.56958C4.53327 9.63528 4.48171 9.71319 4.44672 9.79886C4.41173 9.88453 4.394 9.97626 4.39453 10.0688C4.39712 10.255 4.46995 10.4333 4.59844 10.568L7.45313 13.3805C6.5333 14.901 5.85269 16.5539 5.43516 18.2813H1.40625C1.21977 18.2813 1.04093 18.3554 0.909066 18.4872C0.777204 18.6191 0.703125 18.7979 0.703125 18.9844V26.0157C0.703125 26.2022 0.777204 26.381 0.909066 26.5129C1.04093 26.6447 1.21977 26.7188 1.40625 26.7188Z" fill="black" stroke="black"/>
<path d="M41.4849 19.6875C40.8629 19.6895 40.2592 19.8976 39.7681 20.2793C39.277 20.661 38.9263 21.1947 38.7708 21.7969H29.5318C29.4832 21.3196 29.3867 20.8485 29.2435 20.3906H33.7505C33.9027 20.3906 34.0507 20.3413 34.1724 20.25L36.7951 18.2812H42.188V16.875H36.563C36.4109 16.875 36.2629 16.9243 36.1411 17.0156L33.5185 18.9844H28.5966C28.4085 18.6584 28.1946 18.348 27.9568 18.0563L31.2122 14.8008C31.3173 14.6904 31.386 14.5506 31.4091 14.4L31.8661 11.1516L35.6841 7.34766L34.6716 6.32812L30.6919 10.3008C30.5869 10.4111 30.5182 10.551 30.4951 10.7016L30.038 13.95L26.9443 17.0367C25.9141 16.194 24.6659 15.6609 23.3447 15.4995C22.0236 15.3382 20.6837 15.5551 19.481 16.1251C18.2782 16.6951 17.262 17.5948 16.5503 18.7195C15.8387 19.8443 15.4609 21.1479 15.4609 22.4789C15.4609 23.8099 15.8387 25.1135 16.5503 26.2383C17.262 27.363 18.2782 28.2627 19.481 28.8327C20.6837 29.4027 22.0236 29.6197 23.3447 29.4583C24.6659 29.2969 25.9141 28.7638 26.9443 27.9211L30.038 31.0078L30.4951 34.2563C30.5182 34.4068 30.5869 34.5467 30.6919 34.657L34.6716 38.6719L35.6701 37.6734L31.8521 33.8484L31.3951 30.6C31.3719 30.4494 31.3032 30.3096 31.1982 30.1992L27.9427 26.9438C28.1805 26.652 28.3945 26.3416 28.5826 26.0156H33.5044L36.1271 27.9844C36.2488 28.0757 36.3968 28.125 36.549 28.125H42.174V26.7188H36.7951L34.1724 24.75C34.0507 24.6587 33.9027 24.6094 33.7505 24.6094H29.2083C29.3634 24.1528 29.4718 23.6816 29.5318 23.2031H38.7708C38.9024 23.7128 39.1745 24.1754 39.5559 24.5381C39.9374 24.9009 40.413 25.1493 40.9287 25.2551C41.4444 25.3609 41.9794 25.3199 42.4729 25.1366C42.9664 24.9534 43.3986 24.6354 43.7203 24.2187C44.042 23.802 44.2403 23.3034 44.2926 22.7795C44.3449 22.2557 44.2492 21.7278 44.0163 21.2557C43.7834 20.7836 43.4227 20.3863 42.9752 20.1091C42.5276 19.8319 42.0113 19.6858 41.4849 19.6875ZM22.5005 28.125C21.388 28.125 20.3005 27.7951 19.3754 27.177C18.4504 26.5589 17.7294 25.6804 17.3037 24.6526C16.878 23.6248 16.7666 22.4938 16.9836 21.4026C17.2006 20.3115 17.7364 19.3092 18.523 18.5225C19.3097 17.7359 20.312 17.2001 21.4031 16.9831C22.4943 16.766 23.6253 16.8774 24.6531 17.3032C25.681 17.7289 26.5595 18.4499 27.1775 19.3749C27.7956 20.2999 28.1255 21.3875 28.1255 22.5C28.1255 23.9918 27.5329 25.4226 26.478 26.4775C25.4231 27.5324 23.9924 28.125 22.5005 28.125ZM41.4849 23.9062C41.2068 23.9062 40.9349 23.8238 40.7036 23.6693C40.4724 23.5147 40.2921 23.2951 40.1857 23.0381C40.0793 22.7812 40.0514 22.4984 40.1057 22.2257C40.1599 21.9529 40.2939 21.7023 40.4905 21.5056C40.6872 21.309 40.9378 21.175 41.2106 21.1208C41.4833 21.0665 41.7661 21.0944 42.023 21.2008C42.28 21.3072 42.4996 21.4875 42.6542 21.7187C42.8087 21.95 42.8911 22.2219 42.8911 22.5C42.8911 22.873 42.743 23.2306 42.4793 23.4944C42.2155 23.7581 41.8579 23.9062 41.4849 23.9062Z" fill="#1B3281" stroke="#1B3281"/>
</g>
<defs>
<clipPath id="clip0_194_14675">
<rect width="45" height="45" fill="white"/>
</clipPath>
</defs>
</svg>
