<svg width="47" height="47" viewBox="0 0 47 47" fill="none" xmlns="http://www.w3.org/2000/svg">
<path d="M18.8253 40.1H8.47526C6.17526 40.1 4.16276 38.95 3.10859 36.9375C1.95859 34.925 1.95859 32.625 3.10859 30.7084L8.09193 22.275L9.72109 23.2334L4.73776 31.6667C3.97109 33.0084 3.97109 34.6375 4.73776 35.9792C5.50443 37.3209 6.94193 38.1834 8.47526 38.1834H18.8253V40.1Z" fill="black" stroke="black" stroke-width="0.6"/>
<path d="M33.1046 13.8417L27.9296 5.025C27.1629 3.68333 25.7254 2.91667 24.1921 2.91667C22.6587 2.91667 21.2212 3.68333 20.4546 5.025L15.2796 13.7458L13.6504 12.7875L18.7296 4.06667C19.8796 2.15 21.8921 1 24.0962 1C26.3004 1 28.3129 2.15 29.4629 4.06667L34.6379 12.8833L33.1046 13.8417Z" fill="black" stroke="black" stroke-width="0.6"/>
<path d="M39.8124 40.0999H29.8457V38.1833H39.8124C41.3457 38.1833 42.7832 37.4166 43.5499 35.9791C44.3165 34.5416 44.3165 33.0083 43.5499 31.6666L38.279 22.7541L39.9082 21.7958L45.179 30.7083C46.329 32.6249 46.329 35.0208 45.179 36.9374C44.1249 38.9499 42.1124 40.0999 39.8124 40.0999Z" fill="black" stroke="black" stroke-width="0.6"/>
<path d="M34.5417 45.7542L28.6958 39.9083C28.4083 39.6208 28.3125 39.4292 28.3125 39.1417C28.3125 38.8542 28.4083 38.6625 28.6 38.4708L34.4458 32.625L35.7875 33.9667L30.6125 39.1417L35.7875 44.3167L34.5417 45.7542Z" fill="black" stroke="black" stroke-width="0.6"/>
<path d="M10.3917 30.1334L8.57083 23.0417L1.47917 24.9584L1 23.1375L9.05 21.0292C9.3375 20.9334 9.52917 21.0292 9.81667 21.125C10.1042 21.2209 10.2 21.5084 10.2958 21.7L12.4042 29.75L10.3917 30.1334Z" fill="black" stroke="black" stroke-width="0.6"/>
<path d="M34.1578 14.8C34.062 14.8 33.9661 14.8 33.8703 14.8L25.8203 12.6916L26.2995 10.8708L33.3911 12.7875L35.212 5.6958L37.0328 6.17497L35.0203 14.0333C34.9245 14.3208 34.8286 14.5125 34.5411 14.6083C34.4453 14.7041 34.2536 14.8 34.1578 14.8Z" fill="black" stroke="black" stroke-width="0.6"/>
<path d="M24.5 35L16.2728 30.25L16.2728 20.75L24.5 16L32.7272 20.75L32.7272 30.25L24.5 35Z" fill="#1B3281"/>
</svg>
