<svg width="46" height="46" viewBox="0 0 46 46" fill="none" xmlns="http://www.w3.org/2000/svg">
<g clip-path="url(#clip0_194_14668)">
<path d="M25.4318 38.5882C33.0248 37.3146 38.8108 30.7107 38.8108 22.7555C38.8108 13.8887 31.6226 6.70068 22.756 6.70068C13.8892 6.70068 6.70117 13.8887 6.70117 22.7555C6.70117 30.7106 12.4872 37.3146 20.0802 38.5882" stroke="black" stroke-width="2.6758" stroke-miterlimit="10"/>
<path d="M25.4321 6.92281V1.51501C35.9917 2.83151 44.1627 11.8392 44.1627 22.7556C44.1627 34.5782 34.5788 44.1621 22.7562 44.1621C11.8398 44.1621 2.83221 35.9911 1.51562 25.4314" stroke="black" stroke-width="2.6758" stroke-miterlimit="10"/>
<path d="M6.92342 20.0798H1.51562C2.72241 10.397 10.3975 2.7218 20.0804 1.51501" stroke="black" stroke-width="2.6758" stroke-miterlimit="10"/>
<path d="M25.4337 12.3894C30.0495 13.5775 33.4611 17.7687 33.4611 22.7556C33.4611 28.6664 28.6688 33.4588 22.7579 33.4588C16.8471 33.4588 12.0547 28.6664 12.0547 22.7556C12.0547 17.7687 15.4663 13.5775 20.0821 12.3894V6.92273" stroke="black" stroke-width="2.6758" stroke-miterlimit="10"/>
<circle cx="23" cy="23" r="7" fill="#1B3281"/>
</g>
<defs>
<clipPath id="clip0_194_14668">
<rect width="45.5" height="45.5" fill="white"/>
</clipPath>
</defs>
</svg>
