<svg width="63" height="63" viewBox="0 0 63 63" fill="none" xmlns="http://www.w3.org/2000/svg">
<path d="M4.7202 16.0387L31.5 0.57735L58.2798 16.0387V46.9613L31.5 62.4226L4.7202 46.9613V16.0387Z" stroke="#1B3281"/>
<path d="M36.6569 33.3431C35.7855 32.4718 34.7484 31.8268 33.6168 31.4363C34.8288 30.6016 35.625 29.2046 35.625 27.625C35.625 25.0748 33.5502 23 31 23C28.4498 23 26.375 25.0748 26.375 27.625C26.375 29.2046 27.1712 30.6016 28.3832 31.4363C27.2516 31.8268 26.2145 32.4718 25.3432 33.3431C23.8322 34.8542 23 36.8631 23 39H24.25C24.25 35.278 27.278 32.25 31 32.25C34.722 32.25 37.75 35.278 37.75 39H39C39 36.8631 38.1678 34.8542 36.6569 33.3431ZM31 31C29.139 31 27.625 29.486 27.625 27.625C27.625 25.764 29.139 24.25 31 24.25C32.861 24.25 34.375 25.764 34.375 27.625C34.375 29.486 32.861 31 31 31Z" fill="#1B3281" stroke="#1B3281" stroke-width="0.2"/>
</svg>
