<svg width="44" height="40" viewBox="0 0 44 40" fill="none" xmlns="http://www.w3.org/2000/svg">
<path d="M4.7 39.1666C7.29574 39.1666 9.4 37.0623 9.4 34.4666C9.4 31.8709 7.29574 29.7666 4.7 29.7666C2.10426 29.7666 0 31.8709 0 34.4666C0 37.0623 2.10426 39.1666 4.7 39.1666Z" fill="white"/>
<path d="M39.1668 39.1666C41.7625 39.1666 43.8668 37.0623 43.8668 34.4666C43.8668 31.8709 41.7625 29.7666 39.1668 29.7666C36.5711 29.7666 34.4668 31.8709 34.4668 34.4666C34.4668 37.0623 36.5711 39.1666 39.1668 39.1666Z" fill="white"/>
<path d="M21.9331 32.8998C26.6919 32.8998 30.5497 29.042 30.5497 24.2832C30.5497 19.5243 26.6919 15.6665 21.9331 15.6665C17.1742 15.6665 13.3164 19.5243 13.3164 24.2832C13.3164 29.042 17.1742 32.8998 21.9331 32.8998Z" fill="white"/>
<path d="M13.5383 30.0352C13.245 29.6032 12.9852 29.1494 12.7612 28.6777L9.56445 30.5233C9.89344 30.9312 10.1703 31.3785 10.3885 31.8549L13.5383 30.0352Z" fill="white"/>
<path d="M21.1504 10.9126V14.1399C21.4097 14.1196 21.669 14.1 21.9337 14.1C22.1985 14.1 22.4578 14.1196 22.7171 14.1399V10.9126C22.1973 10.9847 21.6701 10.9847 21.1504 10.9126Z" fill="white"/>
<path d="M21.9344 9.4C24.5301 9.4 26.6344 7.29574 26.6344 4.7C26.6344 2.10426 24.5301 0 21.9344 0C19.3386 0 17.2344 2.10426 17.2344 4.7C17.2344 7.29574 19.3386 9.4 21.9344 9.4Z" fill="white"/>
<path d="M30.3281 30.0352L33.4779 31.8534C33.6962 31.3769 33.973 30.9296 34.302 30.5217L31.1052 28.6777C30.8812 29.1494 30.6214 29.6032 30.3281 30.0352Z" fill="white"/>
</svg>
