<svg width="48" height="38" viewBox="0 0 48 38" fill="none" xmlns="http://www.w3.org/2000/svg">
<path d="M39.1699 2V29.3509H42.6086C43.6129 29.3509 44.5217 29.7575 45.1808 30.4166C45.838 31.0739 46.2456 31.9836 46.2456 32.9879V6.99926C46.2355 4.23617 43.9479 2 41.183 2H39.1699Z" stroke="white" stroke-width="2.4" stroke-miterlimit="10"/>
<path d="M39.1704 6.99915V29.3508H42.6091C43.6134 29.3508 44.5221 29.7574 45.1812 30.4165C45.8385 31.0738 46.2461 31.9835 46.2461 32.9878C46.2461 34.9963 44.6176 36.6248 42.6091 36.6248H24.123H2V6.99915H38.2631" stroke="white" stroke-width="2.4" stroke-miterlimit="10"/>
<path d="M17.2413 12.4539H12.4542L10.0605 16.5997L12.4542 20.7454H17.2413L19.6348 16.5997L17.2413 12.4539Z" fill="white"/>
<path d="M8.4668 31.1702H32.8242" stroke="white" stroke-width="2.4" stroke-miterlimit="10"/>
<path d="M8.4668 25.6337H27.3164" stroke="white" stroke-width="2.4" stroke-miterlimit="10"/>
<path d="M24.6738 14.5895H27.4277" stroke="white" stroke-width="2.4" stroke-miterlimit="10"/>
<path d="M30.1816 14.5895H32.9355" stroke="white" stroke-width="2.4" stroke-miterlimit="10"/>
<path d="M30.1816 25.6337H32.9355" stroke="white" stroke-width="2.4" stroke-miterlimit="10"/>
<path d="M24.6738 20.0973H27.4277" stroke="white" stroke-width="2.4" stroke-miterlimit="10"/>
<path d="M30.1816 20.0973H32.9355" stroke="white" stroke-width="2.4" stroke-miterlimit="10"/>
</svg>
