<svg width="327" height="63" viewBox="0 0 327 63" fill="none" xmlns="http://www.w3.org/2000/svg">
<g clip-path="url(#clip0_184_6066)">
<path d="M72.1616 32.1922V31.0635C75.2425 29.6484 77.1103 26.4778 77.1103 22.8535C77.1103 17.193 72.1616 12.3804 62.1969 12.3804H41.4336V52.7904H62.7765C73.3824 52.7904 78.4601 47.8086 78.4601 41.2425C78.4601 37.174 75.697 33.5496 72.1616 32.1922ZM49.1551 18.2639H61.4979C67.1552 18.2639 69.2117 20.2463 69.2117 23.586C69.2117 26.9258 67.1552 28.9697 61.4979 28.9697H49.1551V18.2639ZM61.754 46.9126H49.1551V34.7417H61.754C68.1834 34.7417 70.5615 37.0048 70.5615 40.7983C70.5538 44.5322 68.1757 46.9107 61.7463 46.9107L61.754 46.9126Z" fill="#1B3281"/>
<path d="M121.853 12.3765H113.818L104.24 27.8314H102.311L92.9257 12.3765H84.8249L96.2685 31.5115L82.9609 52.798H91.3179L102.247 35.305H104.175L114.846 52.798H123.525L110.217 31.2846L121.853 12.3765Z" fill="#1B3281"/>
<path d="M158.181 31.8575V30.7634C160.684 29.6694 162.994 27.1545 162.994 22.836C162.994 16.9871 157.145 12.3398 146.475 12.3398C136.51 12.3398 129.89 16.5506 128.926 23.5474H136.895C137.731 20.0481 140.939 18.2984 146.41 18.2984C151.297 18.2984 155.088 20.1038 155.088 23.657C155.088 26.4988 153.224 28.9599 147.503 28.9599H140.439V34.8089H147.509C154.129 34.8089 156.702 37.1584 156.702 40.7136C156.702 44.5398 152.716 46.8355 146.737 46.8355C140.439 46.8355 136.453 44.8128 135.23 40.7674H127.141C128.352 48.1468 134.716 52.7902 146.673 52.7902C158.308 52.7902 164.737 47.3777 164.737 40.927C164.737 35.7375 161.845 33.0053 158.181 31.8575Z" fill="#1B3281"/>
<path d="M174.351 15.7183C174.432 15.5544 174.487 15.3794 174.517 15.1992C174.57 14.9029 174.594 14.6022 174.588 14.3012C174.588 13.6052 174.472 13.1245 174.237 12.8553C174.125 12.7244 173.985 12.6202 173.828 12.5504C173.67 12.4805 173.499 12.4467 173.327 12.4516H172.006C171.848 12.4446 171.69 12.4789 171.55 12.551C171.409 12.6232 171.289 12.7307 171.203 12.863C171.022 13.1286 170.901 13.4294 170.846 13.7456C170.796 14.0138 170.768 14.2859 170.764 14.5589C170.764 14.5896 170.764 14.6031 170.773 14.6031H171.158C171.168 14.1378 171.253 13.5514 171.401 13.3168C171.463 13.2081 171.554 13.1181 171.663 13.0565C171.772 12.9949 171.896 12.9639 172.021 12.9669H173.413C173.576 12.9621 173.734 13.0145 173.862 13.1149C174.001 13.2616 174.102 13.4398 174.157 13.6341C174.208 13.8961 174.227 14.1634 174.214 14.4301C174.223 14.6895 174.192 14.9488 174.124 15.1992C174.064 15.3799 173.985 15.6164 173.87 15.6837C173.732 15.7568 173.577 15.7919 173.421 15.7856H172.3V16.347H173.423C173.584 16.34 173.744 16.3662 173.895 16.4239C174.002 16.4758 174.07 16.6739 174.126 16.8585C174.191 17.1387 174.219 17.4265 174.208 17.7141C174.217 18.0033 174.19 18.2925 174.13 18.5755C174.076 18.7831 173.974 19.1792 173.835 19.2773C173.711 19.3817 173.556 19.4407 173.394 19.4445H172.006C171.449 19.4445 171.174 18.7024 171.156 17.8006H170.771C170.771 18.5223 170.871 19.0536 171.072 19.3945C171.164 19.5591 171.301 19.6943 171.467 19.7847C171.633 19.8751 171.821 19.9172 172.01 19.906H173.319C173.553 19.9113 173.783 19.8442 173.977 19.7137C174.194 19.5411 174.349 19.3029 174.418 19.035C174.54 18.605 174.595 18.1588 174.58 17.7122C174.587 17.401 174.563 17.09 174.509 16.7835C174.482 16.6067 174.425 16.4357 174.341 16.2778C174.3 16.1981 174.241 16.1285 174.17 16.074L174.07 16.0144C174.081 16.0144 174.114 15.9836 174.168 15.9413C174.243 15.8792 174.305 15.8035 174.351 15.7183Z" fill="#1B3281"/>
<path d="M176.573 12.4517L175.498 14.6859L175.758 15.2031L176.74 13.2246V19.9099H177.146V12.4517H176.573Z" fill="#1B3281"/>
<path d="M18.5844 25.0973L17.2461 24.1802V61.1735L21.1453 58.4951L18.5844 60.2544V25.0973Z" fill="#585EAA"/>
<path d="M24.5819 29.2161L23.4805 28.4604V56.8918L29.4786 52.7734L24.5819 56.1362V29.2161Z" fill="#585EAA"/>
<path d="M11.1066 25.0494V60.3373L6.69516 57.3301L6.20992 56.9994V28.4373L4.89669 29.3448V34.0074V56.1034L0 52.7656L12.3486 61.1852V24.1919L11.1066 25.0494Z" fill="#585EAA"/>
<path d="M4.89669 22.9495C4.89669 22.2994 4.63803 21.6758 4.17761 21.2161C3.7172 20.7563 3.09273 20.498 2.4416 20.498H0V32.7324L4.89669 29.3464V22.9495Z" fill="#585EAA"/>
<path d="M27.0122 12.4478C26.3692 12.4478 25.7526 12.7028 25.2979 13.1568C24.8433 13.6107 24.5879 14.2265 24.5879 14.8685V29.2178L29.4846 32.5787V12.4478H27.0122Z" fill="#585EAA"/>
<path d="M11.1057 7.3316C11.106 6.77583 10.9245 6.23517 10.5887 5.79193C10.2529 5.34869 9.78127 5.02716 9.24559 4.87627C7.70514 4.44173 6.20898 5.70112 6.20898 7.29506V28.4451L11.1057 25.0592V7.3316Z" fill="#585EAA"/>
<path d="M17.2443 24.18V2.71661C17.2443 1.5149 16.4838 0.388182 15.3188 0.0824676C14.9706 -0.0137843 14.6049 -0.0284273 14.2502 0.0396803C13.8954 0.107788 13.5612 0.256806 13.2736 0.475111C12.986 0.693415 12.7528 0.975105 12.5922 1.29821C12.4316 1.62132 12.3479 1.97711 12.3477 2.33783V24.1916L14.797 22.4996L17.2443 24.18Z" fill="#585EAA"/>
<path d="M23.4806 28.4602V7.88695C23.482 7.33003 23.301 6.78792 22.9652 6.34325C22.6294 5.89859 22.1572 5.57575 21.6206 5.42393C20.0801 4.99132 18.582 6.25071 18.582 7.84273V25.1031L21.1449 26.8624L23.4806 28.4602Z" fill="#585EAA"/>
<path d="M24.582 56.136L29.4787 52.7731V32.5787L24.582 29.2158V56.136Z" fill="#1B3281"/>
<path d="M6.69422 57.33L11.1057 60.3372V25.0493L6.20898 28.4372V56.9993L6.69422 57.33Z" fill="#1B3281"/>
<path d="M14.797 22.498L12.3477 24.192V61.1853L14.797 62.8542L17.2443 61.1737V24.1804L14.797 22.498Z" fill="#1B3281"/>
<path d="M21.145 26.8565L18.584 25.0972V60.2543L21.145 58.495L23.4807 56.8914V28.46L21.145 26.8565Z" fill="#1B3281"/>
<path d="M4.89669 34.0073V29.3447L0 32.7307V34.2246V52.7655L4.89669 56.1034V34.0073Z" fill="#1B3281"/>
<path d="M41.5996 62.8001V57.6001H42.3996V61.0001L44.0996 57.6001H44.9996V62.8001H44.1996V59.4001L42.4996 62.8001H41.5996Z" fill="#1B3281"/>
<path d="M45.5996 62.8001V57.6001H46.4996V59.6001H48.1996V57.6001H49.0996V62.8001H48.1996V60.5001H46.4996V62.8001H45.5996Z" fill="#1B3281"/>
<path d="M49.5 62.8001V57.6001H50.4V59.6001H52.1V57.6001H53V62.8001H52.1V60.5001H50.4V62.8001H49.5Z" fill="#1B3281"/>
<path d="M53.2988 60.2C53.2988 59.6 53.3988 59.1 53.5988 58.7C53.7988 58.3 53.9988 58 54.2988 57.8C54.5988 57.6 54.8988 57.5 55.3988 57.5C55.9988 57.5 56.4988 57.7 56.8988 58.2C57.2988 58.7 57.4988 59.3 57.4988 60.2C57.4988 61.1 57.2988 61.7 56.8988 62.2C56.4988 62.6 56.0988 62.8 55.4988 62.8C54.8988 62.8 54.3988 62.6 54.0988 62.2C53.4988 61.7 53.2988 61.1 53.2988 60.2ZM54.1988 60.2C54.1988 60.8 54.2988 61.2 54.4988 61.5C54.6988 61.8 54.9988 61.9 55.2988 61.9C55.5988 61.9 55.8988 61.8 56.0988 61.5C56.2988 61.2 56.3988 60.8 56.3988 60.1C56.3988 59.5 56.2988 59.1 56.0988 58.8C55.8988 58.5 55.5988 58.4 55.2988 58.4C54.9988 58.4 54.6988 58.5 54.4988 58.8C54.2988 59.1 54.1988 59.6 54.1988 60.2Z" fill="#1B3281"/>
<path d="M57.7988 57.6001H59.4988C59.9988 57.6001 60.2988 57.6001 60.4988 57.7001C60.6988 57.8001 60.7988 57.9001 60.9988 58.1001C61.0988 58.3001 61.1988 58.6001 61.1988 58.8001C61.1988 59.0001 61.0988 59.3001 60.9988 59.5001C60.8988 59.7001 60.6988 59.8001 60.5988 59.9001C60.8988 60.0001 60.9988 60.1001 61.1988 60.4001C61.2988 60.6001 61.3988 60.9001 61.3988 61.2001C61.3988 61.6001 61.2988 61.9001 61.0988 62.2001C60.8988 62.5001 60.6988 62.6001 60.4988 62.7001C60.2988 62.7001 59.8988 62.8001 59.2988 62.8001H57.8988V57.6001H57.7988ZM58.6988 58.5001V59.7001H59.2988C59.5988 59.7001 59.7988 59.7001 59.8988 59.7001C59.9988 59.7001 60.1988 59.6001 60.1988 59.5001C60.2988 59.4001 60.2988 59.3001 60.2988 59.1001C60.2988 58.9001 60.2988 58.8001 60.1988 58.7001C60.0988 58.6001 60.0988 58.5001 59.9988 58.5001C59.8988 58.5001 59.5988 58.5001 59.1988 58.5001H58.6988ZM58.6988 60.5001V61.9001H59.4988C59.7988 61.9001 60.0988 61.9001 60.1988 61.8001C60.2988 61.8001 60.3988 61.7001 60.3988 61.6001C60.4988 61.5001 60.4988 61.4001 60.4988 61.2001C60.4988 61.0001 60.4988 60.9001 60.3988 60.8001C60.2988 60.7001 60.1988 60.6001 60.0988 60.6001C59.9988 60.6001 59.6988 60.5001 59.3988 60.5001H58.6988Z" fill="#1B3281"/>
<path d="M65.6004 62.8001H64.7004L64.3004 61.6001H62.6004L62.3004 62.8001H61.4004L63.0004 57.6001H63.9004L65.6004 62.8001ZM64.0004 60.7001L63.4004 58.8001L62.8004 60.7001H64.0004Z" fill="#1B3281"/>
<path d="M69.0992 61.9001H69.3992V63.9001H68.6992V62.8001H65.6992V57.6001H66.5992V61.9001H68.2992V57.6001H69.0992V61.9001Z" fill="#1B3281"/>
<path d="M69.7988 62.8001V57.6001H70.5988V61.0001L72.2988 57.6001H73.1988V62.8001H72.3988V59.4001L70.6988 62.8001H69.7988Z" fill="#1B3281"/>
<path d="M73.5996 60.2C73.5996 59.6 73.6996 59.1 73.8996 58.7C74.0996 58.3 74.2996 58 74.5996 57.8C74.8996 57.6 75.1996 57.5 75.6996 57.5C76.2996 57.5 76.7996 57.7 77.1996 58.2C77.5996 58.7 77.7996 59.3 77.7996 60.2C77.7996 61.1 77.5996 61.7 77.1996 62.2C76.7996 62.6 76.3996 62.8 75.7996 62.8C75.1996 62.8 74.6996 62.6 74.3996 62.2C73.7996 61.7 73.5996 61.1 73.5996 60.2ZM74.4996 60.2C74.4996 60.8 74.5996 61.2 74.7996 61.5C74.9996 61.8 75.2996 61.9 75.5996 61.9C75.8996 61.9 76.1996 61.8 76.3996 61.5C76.5996 61.2 76.6996 60.8 76.6996 60.1C76.6996 59.5 76.5996 59.1 76.3996 58.8C76.1996 58.5 75.8996 58.4 75.5996 58.4C75.2996 58.4 74.9996 58.5 74.7996 58.8C74.5996 59.1 74.4996 59.6 74.4996 60.2Z" fill="#1B3281"/>
<path d="M78.0996 62.8001V57.6001H78.9996V59.6001H80.6996V57.6001H81.5996V62.8001H80.6996V60.5001H78.9996V62.8001H78.0996Z" fill="#1B3281"/>
<path d="M82.0996 62.8001V57.6001H82.9996V59.6001H84.6996V57.6001H85.5996V62.8001H84.6996V60.5001H82.9996V62.8001H82.0996Z" fill="#1B3281"/>
<path d="M86 62.8001V57.6001H86.9V59.7001H88.1C88.5 59.7001 88.9 59.8001 89.2 60.1001C89.5 60.4001 89.6 60.8001 89.6 61.2001C89.6 61.6001 89.5 61.9001 89.3 62.3001C89.1 62.6001 88.7 62.8001 88.2 62.8001H86ZM86.9 60.5001V61.9001H87.8C88 61.9001 88.2 61.9001 88.3 61.9001C88.4 61.9001 88.5 61.8001 88.6 61.7001C88.7 61.6001 88.7 61.4001 88.7 61.3001C88.7 60.8001 88.4 60.6001 87.8 60.6001H86.9V60.5001ZM90.2 62.8001V57.6001H91.1V62.8001H90.2Z" fill="#1B3281"/>
<path d="M91.5996 62.8002V57.6002H92.3996V61.0002L94.0996 57.6002H94.9996V62.8002H94.1996V59.4002L92.4996 62.8002H91.5996ZM93.7996 56.2002H94.1996C94.1996 56.5002 94.0996 56.8002 93.8996 57.0002C93.6996 57.2002 93.4996 57.3002 93.2996 57.3002C93.0996 57.3002 92.7996 57.2002 92.6996 57.0002C92.4996 56.8002 92.3996 56.6002 92.3996 56.2002H92.7996C92.7996 56.5002 92.9996 56.7002 93.2996 56.7002C93.6996 56.7002 93.7996 56.6002 93.7996 56.2002Z" fill="#1B3281"/>
<path d="M96.5 62.8001L97.9 60.1001L96.6 57.6001H97.6L98.4 59.3001L99.2 57.6001H100.2L99 60.1001L100.4 62.8001H99.4L98.5 61.0001L97.6 62.8001H96.5Z" fill="#1B3281"/>
<path d="M100.6 62.8001V57.6001H101.4V61.0001L103.1 57.6001H104V62.8001H103.2V59.4001L101.5 62.8001H100.6Z" fill="#1B3281"/>
<path d="M104.6 62.8001V57.6001H105.9L106.7 61.1001L107.5 57.6001H108.8V62.8001H108V58.7001L107.2 62.8001H106.4L105.6 58.7001V62.8001H104.6Z" fill="#1B3281"/>
<path d="M109.199 62.8001V57.6001H109.999V61.0001L111.699 57.6001H112.599V62.8001H111.799V59.4001L110.099 62.8001H109.199Z" fill="#1B3281"/>
<path d="M113.1 59.4001V57.6001H114V59.0001C114 59.3001 114 59.5001 114 59.6001C114 59.7001 114.1 59.9001 114.2 60.0001C114.3 60.1001 114.5 60.1001 114.7 60.1001C115.1 60.1001 115.3 60.0001 115.6 59.8001V57.6001H116.5V62.8001H115.6V60.7001C115.3 60.9001 114.9 61.0001 114.6 61.0001C114.1 61.0001 113.8 60.9001 113.5 60.6001C113.2 60.3001 113.1 59.9001 113.1 59.4001Z" fill="#1B3281"/>
<path d="M117 62.8001V57.6001H120.1V58.5001H117.8V59.6001H119.9V60.5001H117.8V61.9001H120.2V62.8001H117Z" fill="#1B3281"/>
<path d="M123.4 60.9001L124.2 61.2001C124.1 61.8001 123.9 62.2001 123.6 62.5001C123.3 62.8001 122.9 62.9001 122.5 62.9001C121.9 62.9001 121.5 62.7001 121.2 62.3001C120.8 61.8001 120.6 61.1001 120.6 60.3001C120.6 59.4001 120.8 58.7001 121.2 58.2001C121.5 57.8001 122 57.6001 122.6 57.6001C123.1 57.6001 123.5 57.8001 123.8 58.1001C124 58.3001 124.2 58.7001 124.3 59.1001L123.5 59.3001C123.4 59.0001 123.3 58.8001 123.2 58.7001C123 58.5001 122.9 58.5001 122.6 58.5001C122.3 58.5001 122 58.6001 121.8 58.9001C121.6 59.2001 121.5 59.6001 121.5 60.2001C121.5 60.8001 121.6 61.3001 121.8 61.6001C122 61.9001 122.2 62.0001 122.5 62.0001C122.7 62.0001 122.9 61.9001 123.1 61.7001C123.2 61.5001 123.3 61.2001 123.4 60.9001Z" fill="#1B3281"/>
<path d="M124.699 62.8V57.6H125.599V59.8C125.799 59.8 125.899 59.7 125.999 59.6C126.099 59.5 126.199 59.2 126.299 58.8C126.399 58.4 126.499 58.1 126.699 57.9C126.799 57.7 126.999 57.6 127.099 57.6C127.199 57.6 127.499 57.5 127.799 57.5V58.3H127.699C127.499 58.3 127.299 58.4 127.199 58.5C127.099 58.6 126.999 58.8 126.899 59.1C126.799 59.4 126.699 59.6 126.699 59.7C126.599 59.8 126.499 59.9 126.399 60C126.599 60.1 126.699 60.2 126.899 60.4C126.999 60.6 127.199 60.9 127.299 61.3L127.899 62.7H126.899L126.399 61.4C126.299 61.1 126.199 60.8 126.099 60.7C125.999 60.6 125.899 60.5 125.699 60.5V62.8H124.699Z" fill="#1B3281"/>
<path d="M128 62.8001V57.6001H128.8V61.0001L130.5 57.6001H131.4V62.8001H130.6V59.4001L128.9 62.8001H128Z" fill="#1B3281"/>
<path d="M131.9 62.8002V57.6002H132.7V61.0002L134.4 57.6002H135.3V62.8002H134.5V59.4002L132.8 62.8002H131.9ZM134.1 56.2002H134.5C134.5 56.5002 134.4 56.8002 134.2 57.0002C134 57.2002 133.8 57.3002 133.6 57.3002C133.4 57.3002 133.1 57.2002 133 57.0002C132.8 56.8002 132.7 56.6002 132.7 56.2002H133.1C133.1 56.5002 133.3 56.7002 133.6 56.7002C133.9 56.7002 134.1 56.6002 134.1 56.2002Z" fill="#1B3281"/>
<path d="M136.799 62.8001L138.199 60.1001L136.899 57.6001H137.899L138.699 59.3001L139.499 57.6001H140.499L139.199 60.1001L140.599 62.8001H139.599L138.699 61.0001L137.799 62.8001H136.799Z" fill="#1B3281"/>
<path d="M140.699 60.2C140.699 59.6 140.799 59.1 140.999 58.7C141.199 58.3 141.399 58 141.699 57.8C141.999 57.6 142.299 57.5 142.799 57.5C143.399 57.5 143.899 57.7 144.299 58.2C144.699 58.7 144.899 59.3 144.899 60.2C144.899 61.1 144.699 61.7 144.299 62.2C143.899 62.6 143.499 62.8 142.899 62.8C142.299 62.8 141.799 62.6 141.499 62.2C140.899 61.7 140.699 61.1 140.699 60.2ZM141.599 60.2C141.599 60.8 141.699 61.2 141.899 61.5C142.099 61.8 142.399 61.9 142.699 61.9C142.999 61.9 143.299 61.8 143.499 61.5C143.699 61.2 143.799 60.8 143.799 60.1C143.799 59.5 143.699 59.1 143.499 58.8C143.299 58.5 142.999 58.4 142.699 58.4C142.399 58.4 142.099 58.5 141.899 58.8C141.699 59.1 141.599 59.6 141.599 60.2Z" fill="#1B3281"/>
<path d="M147.6 62.8002V58.5002H146.3V60.7002C146.3 61.3002 146.3 61.7002 146.2 62.0002C146.2 62.3002 146.1 62.5002 146 62.6002C145.9 62.7002 145.7 62.8002 145.4 62.8002C145.3 62.8002 145.1 62.8002 144.9 62.8002V62.0002H145.1C145.3 62.0002 145.4 62.0002 145.5 61.9002C145.6 61.8002 145.6 61.7002 145.6 61.5002V57.7002H148.6V62.9002H147.6V62.8002Z" fill="#1B3281"/>
<path d="M152.3 61.9001H152.7V63.9001H152V62.8001H149.3V63.9001H148.6V61.9001H149C149.1 61.5001 149.2 61.1001 149.3 60.6001C149.4 60.1001 149.4 59.3001 149.4 58.3001V57.6001H152.3V61.9001ZM151.5 58.5001H150.2C150.2 60.0001 150.1 61.2001 149.9 61.9001H151.5V58.5001Z" fill="#1B3281"/>
<path d="M153 62.8001V57.6001H153.8V61.0001L155.5 57.6001H156.4V62.8001H155.6V59.4001L153.9 62.8001H153Z" fill="#1B3281"/>
<path d="M157 62.8001V57.6001H157.9V59.6001H159.6V57.6001H160.5V62.8001H159.6V60.5001H157.9V62.8001H157Z" fill="#1B3281"/>
<path d="M160.9 62.8002V57.7002H163.9V58.6002H161.8V62.8002H160.9Z" fill="#1B3281"/>
</g>
<defs>
<clipPath id="clip0_184_6066">
<rect width="327" height="62.854" fill="white"/>
</clipPath>
</defs>
</svg>
