<svg width="23" height="12" viewBox="0 0 23 12" fill="none" xmlns="http://www.w3.org/2000/svg">
<path d="M19.0832 6.8778C18.7104 6.45598 18.8182 6.27118 19.0832 5.89756C19.0877 5.89354 22.1559 2.1011 22.4749 0.815534C22.6321 0.345497 22.4749 0.00401765 21.7157 0.00401765H19.2C18.5576 0.00401765 18.2656 0.301306 18.1084 0.630734C18.1084 0.630734 16.8281 3.37061 15.0177 5.1463C14.4337 5.66053 14.1642 5.82524 13.8452 5.82524C13.688 5.82524 13.4454 5.66053 13.4454 5.19049V0.811517C13.4454 0.24908 13.2657 0 12.7356 0H8.78241C8.3826 0 8.14002 0.261132 8.14002 0.506194C8.14002 1.04051 9.04746 1.16103 9.1418 2.66354V5.91764C9.1418 6.62873 8.99804 6.7613 8.6746 6.7613C7.82107 6.7613 5.74563 4.00937 4.51474 0.859726C4.26767 0.24908 4.02509 0 3.3782 0H0.862518C0.143752 0 0 0.297288 0 0.626716C0 1.20924 0.853533 4.11784 3.97567 7.95849C6.0556 10.5778 8.98457 12 11.6485 12C13.2477 12 13.4454 11.6826 13.4454 11.1403C13.4454 8.63743 13.3017 8.4004 14.1013 8.4004C14.4741 8.4004 15.112 8.56512 16.608 9.8306C18.315 11.3291 18.5981 12 19.5549 12H22.0706C22.7894 12 23.1487 11.6826 22.9421 11.0639C22.4569 9.75025 19.227 7.05859 19.0832 6.8778Z" fill="#1B3281"/>
</svg>
