<svg width="48" height="48" viewBox="0 0 48 48" fill="none" xmlns="http://www.w3.org/2000/svg">
<g clip-path="url(#clip0_184_6310)">
<path d="M44.3719 33.7623H33.2612C32.401 33.7623 31.7559 33.0455 31.7559 32.257V26.8808C31.7559 26.0206 32.4727 25.3755 33.2612 25.3755H44.3719C45.2321 25.3755 45.8773 26.0923 45.8773 26.8808V32.257C45.9489 33.0455 45.2321 33.7623 44.3719 33.7623Z" stroke="#1B3281" stroke-width="2.86729" stroke-miterlimit="10"/>
<path d="M34.623 33.7622L35.9133 46.0915H38.7089H41.7913L42.8665 33.7622H38.8523H34.623Z" stroke="#1B3281" stroke-width="2.86729" stroke-miterlimit="10"/>
<path d="M44.659 21.8632C44.659 23.1535 44.2289 24.3004 43.5838 25.3039H33.835C33.1899 24.3004 32.7598 23.1535 32.7598 21.8632C32.7598 18.5658 35.412 15.9136 38.7094 15.9136C42.0068 15.9136 44.659 18.5658 44.659 21.8632Z" stroke="#1B3281" stroke-width="2.86729" stroke-miterlimit="10"/>
<path d="M1.43359 31.1099V40.7154C1.43359 42.2924 2.72387 43.511 4.2292 43.511C5.80621 43.511 7.02481 42.2207 7.02481 40.7154V12.0425H1.43359V34.1206" stroke="#1B3281" stroke-width="2.86729" stroke-miterlimit="10"/>
<path d="M38.7077 15.9134C35.4103 15.9134 32.758 18.5656 32.758 21.863C32.758 23.1533 33.1881 24.3002 33.8333 25.3038H33.2598C32.3996 25.3038 31.7545 26.0206 31.7545 26.8091V32.1853C31.7545 33.0454 32.4713 33.6906 33.2598 33.6906H34.6218L35.6253 43.511H4.22852C5.80552 43.511 7.02412 42.2208 7.02412 40.7154V1.43359H38.7077V15.9134Z" stroke="#1B3281" stroke-width="2.86729" stroke-miterlimit="10"/>
<path d="M11.8984 17.6338H29.6756" stroke="#1B3281" stroke-width="2.86729" stroke-miterlimit="10"/>
<path d="M11.8984 27.7412H27.5252" stroke="#1B3281" stroke-width="2.86729" stroke-miterlimit="10"/>
<path d="M11.8984 22.7231H27.5252" stroke="#1B3281" stroke-width="2.86729" stroke-miterlimit="10"/>
</g>
<defs>
<clipPath id="clip0_184_6310">
<rect width="47.3819" height="47.5253" fill="white"/>
</clipPath>
</defs>
</svg>
