<svg width="29" height="47" viewBox="0 0 29 47" fill="none" xmlns="http://www.w3.org/2000/svg">
<g clip-path="url(#clip0_184_6298)">
<path d="M1.43359 44.8014H27.4542V38.9951H1.43359V44.8014Z" stroke="#1B3281" stroke-width="2.86729" stroke-miterlimit="10"/>
<path d="M4.30078 21.6484H12.9743V7.24023H4.30078V21.6484Z" stroke="#1B3281" stroke-width="2.86729" stroke-miterlimit="10"/>
<path d="M5.73438 7.23985H11.5406V1.43359H5.73438V7.23985Z" stroke="#1B3281" stroke-width="2.86729" stroke-miterlimit="10"/>
<path d="M5.73438 27.4542H11.5406V21.6479H5.73438V27.4542Z" stroke="#1B3281" stroke-width="2.86729" stroke-miterlimit="10"/>
<path d="M12.998 39.0429V33.2366H15.8653C19.091 33.2366 21.6716 30.6561 21.6716 27.4304C21.6716 24.2047 19.091 21.6241 15.8653 21.6241H12.998V15.8179H15.8653C22.2451 15.8179 27.4062 20.979 27.4062 27.3587C27.4062 33.7384 22.2451 38.8995 15.8653 38.8995H12.998V39.0429Z" stroke="#1B3281" stroke-width="2.86729" stroke-miterlimit="10"/>
<path d="M1.43359 33.2129H12.9744" stroke="#1B3281" stroke-width="2.86729" stroke-miterlimit="10"/>
</g>
<defs>
<clipPath id="clip0_184_6298">
<rect width="28.8879" height="46.235" fill="white"/>
</clipPath>
</defs>
</svg>
