<svg width="74" height="95" viewBox="0 0 74 95" fill="none" xmlns="http://www.w3.org/2000/svg">
<g clip-path="url(#clip0_184_6321)">
<path d="M14.8996 21.2001H0.599609V18.8001H14.8996C16.2996 18.8001 17.5996 18.5001 18.4996 18.0001C19.4996 17.5001 20.1996 16.7001 20.7996 15.7001C21.2996 14.7001 21.5996 13.6001 21.5996 12.4001C21.5996 11.2001 21.2996 10.1001 20.7996 9.1001C20.2996 8.1001 19.4996 7.4001 18.4996 6.8001C17.4996 6.3001 16.2996 6.0001 14.8996 6.0001H7.79961V33.4001H4.99961V3.6001H14.8996C16.8996 3.6001 18.6996 4.0001 19.9996 4.8001C21.3996 5.6001 22.3996 6.6001 23.0996 8.0001C23.7996 9.3001 24.1996 10.8001 24.1996 12.5001C24.1996 14.1001 23.7996 15.6001 23.0996 17.0001C22.3996 18.3001 21.2996 19.4001 19.9996 20.2001C18.6996 20.8001 16.8996 21.2001 14.8996 21.2001ZM14.7996 24.0001V26.4001H0.599609V24.0001H14.7996Z" fill="#1B3281"/>
<path d="M48.8008 93.2H72.4008V81H48.8008V93.2Z" stroke="#1B3281" stroke-width="3" stroke-miterlimit="10"/>
<path d="M25.0996 93.2H48.6996V81H25.0996V93.2Z" stroke="#1B3281" stroke-width="3" stroke-miterlimit="10"/>
<path d="M48.8008 80.9998H72.4008V68.7998H48.8008V80.9998Z" stroke="#1B3281" stroke-width="3" stroke-miterlimit="10"/>
<path d="M25.0996 80.9998H48.6996V68.7998H25.0996V80.9998Z" stroke="#1B3281" stroke-width="3" stroke-miterlimit="10"/>
<path d="M48.8008 68.8001H72.4008V56.6001H48.8008V68.8001Z" stroke="#1B3281" stroke-width="3" stroke-miterlimit="10"/>
<path d="M1.5 93.2H25.1V81H1.5V93.2Z" stroke="#1B3281" stroke-width="3" stroke-miterlimit="10"/>
<path d="M57.5996 1.5H72.3996V16.2" stroke="#1B3281" stroke-width="3" stroke-miterlimit="10"/>
<path d="M72.4 2.2998L48.8 21.3998V42.4998H25.1L1.5 59.4998" stroke="#1B3281" stroke-width="3" stroke-miterlimit="10"/>
</g>
<defs>
<clipPath id="clip0_184_6321">
<rect width="73.9" height="94.7" fill="white"/>
</clipPath>
</defs>
</svg>
