<svg width="39" height="50" viewBox="0 0 39 50" fill="none" xmlns="http://www.w3.org/2000/svg">
<g clip-path="url(#clip0_184_6419)">
<path d="M21.2105 42.9492C21.2105 45.4693 19.1804 47.7095 16.7302 47.7095C14.2101 47.7095 12.25 45.3993 12.25 42.9492C12.25 40.4991 16.7302 33.6387 16.7302 33.6387C16.7302 33.6387 21.2105 40.4991 21.2105 42.9492Z" stroke="black" stroke-width="2.80016" stroke-miterlimit="10"/>
<path d="M12.181 29.1585C12.181 32.1687 9.73085 34.5488 6.79069 34.5488C3.85052 34.5488 1.40039 32.0987 1.40039 29.1585C1.40039 26.2184 6.79069 18.3779 6.79069 18.3779C6.79069 18.3779 12.181 26.2184 12.181 29.1585Z" stroke="black" stroke-width="2.80016" stroke-miterlimit="10"/>
<path d="M27.5128 34.307C22.0525 34.307 17.5723 29.8967 17.5723 24.3664C17.5723 18.8361 27.5128 3.36523 27.5128 3.36523C27.5128 3.36523 37.4534 18.9061 37.4534 24.3664C37.4534 29.8267 32.9731 34.307 27.5128 34.307Z" stroke="black" stroke-width="2.80016" stroke-miterlimit="10"/>
<path d="M27.5116 30.6665C24.0814 30.6665 21.2812 27.8663 21.2812 24.4361C21.2812 21.0059 27.5116 11.2754 27.5116 11.2754C27.5116 11.2754 33.7419 21.0059 33.7419 24.4361C33.7419 27.8663 30.9418 30.6665 27.5116 30.6665Z" fill="#1B3281"/>
</g>
<defs>
<clipPath id="clip0_184_6419">
<rect width="38.8522" height="48.3027" fill="white" transform="translate(0 0.806641)"/>
</clipPath>
</defs>
</svg>
