<svg width="51" height="46" viewBox="0 0 51 46" fill="none" xmlns="http://www.w3.org/2000/svg">
<path d="M34.6035 32.5996C32.3965 32.5996 30.5996 34.3965 30.5996 36.6035C30.5996 38.8105 32.3965 40.6074 34.6035 40.6074C36.8105 40.6074 38.6074 38.8105 38.6074 36.6035C38.6074 34.3965 36.8105 32.5996 34.6035 32.5996Z" fill="#1B3281"/>
<path d="M14.6035 32.5996C12.3965 32.5996 10.5996 34.3965 10.5996 36.6035C10.5996 38.8105 12.3965 40.6074 14.6035 40.6074C16.8105 40.6074 18.6074 38.8105 18.6074 36.6035C18.6074 34.3965 16.8105 32.5996 14.6035 32.5996Z" fill="#1B3281"/>
<path d="M48.1875 35.8027C48.6953 35.1289 49.0078 34.3086 49.0078 33.4004V28.5957C49.0078 23.7422 45.0625 19.7969 40.209 19.7969V13.4004H33.8125V19.7969H29.0078V5.39258H30.6094V0.597656H3.40234V5.40234H5.00391V19.8066H2.60156V35.8125H1V37.4141H5.84375C6.25391 41.8965 10.0234 45.4121 14.6035 45.4121C19.1836 45.4121 22.9629 41.8867 23.3633 37.4141H25.8438C26.2539 41.8965 30.0234 45.4121 34.6035 45.4121C39.1836 45.4121 42.9531 41.8867 43.3633 37.4141H50.6094V35.8125H48.1875V35.8027ZM35.4043 15.002H38.6074V19.8066H35.4043V15.002ZM5.00391 2.19922H29.0078V3.80078H5.00391V2.19922ZM27.4062 5.39258V19.7969H6.60547V5.39258H27.4062ZM14.6035 43.8008C10.6289 43.8008 7.40625 40.5684 7.40625 36.6035C7.40625 32.6387 10.6387 29.4062 14.6035 29.4062C18.5684 29.4062 21.8008 32.6387 21.8008 36.6035C21.8008 40.5684 18.5781 43.8008 14.6035 43.8008ZM34.6035 43.8008C30.6289 43.8008 27.4062 40.5684 27.4062 36.6035C27.4062 32.6387 30.6387 29.4062 34.6035 29.4062C38.5684 29.4062 41.8008 32.6387 41.8008 36.6035C41.8008 40.5684 38.5781 43.8008 34.6035 43.8008ZM47.4062 33.4004C47.4062 34.7285 46.332 35.8027 45.0039 35.8027H43.3633C42.9531 31.3203 39.1836 27.8047 34.5938 27.8047C30.0137 27.8047 26.2344 31.3301 25.8242 35.8027H23.3535C22.9434 31.3203 19.1738 27.8047 14.584 27.8047C10.0039 27.8047 6.22461 31.3301 5.81445 35.8027H4.20312V21.3984H40.209C44.1836 21.3984 47.4062 24.6309 47.4062 28.5957V33.4004Z" fill="black" stroke="black" stroke-width="0.5"/>
<path d="M17.0059 6.99414H8.99805V18.1953H16.9961V6.99414H17.0059Z" fill="#1B3281"/>
</svg>
