<svg width="46" height="47" viewBox="0 0 46 47" fill="none" xmlns="http://www.w3.org/2000/svg">
<path d="M8.57031 7.97429C11.3582 9.19457 16.183 10.8748 22.3782 10.9687C29.1366 11.0719 34.3651 9.23212 37.2374 7.98368C36.4395 7.08255 31.4552 1.6758 23.2418 1.53499C14.6341 1.37542 9.33064 7.12949 8.57031 7.97429Z" fill="#1B3281"/>
<path d="M22.904 1C22.0967 1 21.2895 1.04693 20.4916 1.13141C19.7594 1.20651 19.0273 1.32854 18.3139 1.47872C18.1731 1.50688 18.0323 1.53504 17.9009 1.57259C13.6768 2.53004 9.82827 4.68899 6.79635 7.78661C6.51475 8.0776 6.24253 8.36859 5.97032 8.67835C-2.20553 18.0651 -1.21992 32.2954 8.15743 40.4618C17.1405 48.281 30.6574 47.7647 39.0116 39.2697C39.2932 38.9787 39.5654 38.6877 39.8377 38.378C43.4422 34.2666 45.4321 28.9912 45.4321 23.5282C45.4321 11.0907 35.3414 1 22.904 1ZM28.3201 3.21527C28.4797 3.25282 28.6393 3.30914 28.7895 3.34668C28.9772 3.403 29.1649 3.45932 29.3527 3.51564C29.5122 3.56258 29.6718 3.6189 29.822 3.67522C30.0097 3.74093 30.1881 3.80663 30.3758 3.87234C30.5354 3.92866 30.6856 3.99437 30.8452 4.06008C31.0235 4.13517 31.2019 4.21026 31.3802 4.28536C31.5304 4.35106 31.69 4.42616 31.8402 4.49187C32.0185 4.57635 32.1875 4.66083 32.3658 4.74531C32.516 4.8204 32.6662 4.89549 32.8164 4.97998C32.9853 5.07384 33.1543 5.16771 33.3233 5.26158C33.4734 5.34606 33.6143 5.43054 33.7644 5.51502C33.9334 5.61827 34.093 5.71214 34.2525 5.82478C34.3933 5.91865 34.5341 6.01252 34.6749 6.10638C34.8345 6.21902 34.9941 6.32228 35.1537 6.43492C35.2945 6.53817 35.4259 6.63204 35.5667 6.73529C35.7169 6.84794 35.8764 6.96996 36.0266 7.09199C36.1581 7.19524 36.2895 7.2985 36.4209 7.41114C36.5711 7.53317 36.7119 7.66458 36.8621 7.796C36.9935 7.90864 37.1155 8.02128 37.2375 8.13392C37.3783 8.26533 37.5191 8.40613 37.6599 8.54693C37.782 8.66896 37.904 8.7816 38.026 8.90363C38.0448 8.9224 38.0729 8.95056 38.0917 8.97872C36.4584 9.82353 34.7313 10.49 32.9478 10.9593C32.0185 8.0025 30.3664 5.32728 28.1418 3.16834C28.1981 3.18711 28.2544 3.20588 28.3201 3.21527ZM23.6549 2.56758C26.8652 3.02753 29.6812 6.3786 31.4553 11.3254C28.8927 11.898 26.2738 12.2078 23.6549 12.2453V2.56758ZM22.153 2.56758V12.2453C19.5248 12.2078 16.9152 11.898 14.3527 11.3254C16.1268 6.3786 18.9428 3.01815 22.153 2.56758ZM7.80073 8.91302C7.92276 8.79099 8.04479 8.66896 8.16681 8.55632C8.30762 8.41552 8.44842 8.28411 8.58922 8.15269C8.71124 8.04005 8.84266 7.91802 8.97407 7.80538C9.11487 7.67397 9.26506 7.55194 9.41525 7.42991C9.54666 7.31727 9.67808 7.21402 9.80949 7.11076C9.95968 6.98874 10.1099 6.86671 10.2601 6.75407C10.4009 6.65081 10.5323 6.54756 10.6731 6.45369C10.8326 6.34105 10.9828 6.22841 11.1424 6.12516C11.2832 6.03129 11.424 5.93742 11.5742 5.84355C11.7338 5.7403 11.8933 5.63705 12.0623 5.54318C12.2125 5.4587 12.3533 5.37422 12.5035 5.28035C12.6724 5.18648 12.832 5.09262 13.001 5.00814C13.1512 4.92365 13.3014 4.84856 13.4515 4.77347C13.6205 4.68899 13.7989 4.60451 13.9678 4.52003C14.118 4.44493 14.2776 4.37922 14.4278 4.31352C14.6061 4.23842 14.7845 4.16333 14.9628 4.08824C15.1224 4.02253 15.2726 3.96621 15.4321 3.9005C15.6105 3.83479 15.7982 3.76909 15.9766 3.70338C16.1362 3.64706 16.2957 3.59074 16.4459 3.5438C16.6336 3.48748 16.8214 3.43116 17.0091 3.37484C17.1687 3.32791 17.3283 3.28098 17.4878 3.23404C17.5442 3.21527 17.6099 3.20588 17.6662 3.18711C15.4415 5.34606 13.7989 8.02128 12.8696 10.9781C11.0861 10.5088 9.35893 9.8423 7.72564 8.9975C7.7538 8.95995 7.77257 8.94118 7.80073 8.91302ZM17.4878 43.8504C17.3377 43.8129 17.1781 43.766 17.0279 43.719C16.8402 43.6627 16.643 43.6064 16.4553 43.5501C16.2957 43.5031 16.1455 43.4468 15.986 43.3905C15.7982 43.3248 15.6199 43.2591 15.4321 43.1934C15.2726 43.137 15.1224 43.0713 14.9628 43.0056C14.7845 42.9305 14.6061 42.8554 14.4278 42.7804C14.2776 42.7146 14.1274 42.6395 13.9678 42.5738C13.7895 42.4894 13.6205 42.4049 13.4422 42.3204C13.292 42.2453 13.1418 42.1702 12.9916 42.0857C12.8226 41.9919 12.6537 41.898 12.4847 41.8041C12.3345 41.7197 12.1937 41.6352 12.0435 41.5507C11.8746 41.4474 11.715 41.3536 11.5554 41.2409C11.4146 41.1471 11.2738 41.0532 11.133 40.9593C10.9734 40.8561 10.8139 40.7434 10.6543 40.6308C10.5135 40.5369 10.3821 40.4337 10.2413 40.3304C10.0817 40.2178 9.93152 40.0957 9.78133 39.9737C9.64992 39.8705 9.5185 39.7672 9.38709 39.6546C9.2369 39.5325 9.0961 39.4011 8.94591 39.2697C8.8145 39.1571 8.69247 39.0444 8.56106 38.9318C8.42026 38.8004 8.27945 38.6596 8.13865 38.5188C8.01663 38.3967 7.8946 38.2841 7.77257 38.1621C7.7538 38.1433 7.72564 38.1151 7.70686 38.0964C9.34954 37.2516 11.0673 36.5851 12.8508 36.1158C13.7801 39.0726 15.4321 41.7478 17.6474 43.9068C17.6099 43.8786 17.5442 43.8598 17.4878 43.8504ZM22.153 44.4981C18.9428 44.0382 16.1268 40.6871 14.3527 35.7403C16.9152 35.1677 19.5248 34.8579 22.153 34.8204V44.4981ZM23.6549 44.4981V34.8204C26.2832 34.8579 28.8927 35.1677 31.4553 35.7403C29.6812 40.6871 26.8652 44.0382 23.6549 44.4981ZM38.0166 38.1527C37.8946 38.2747 37.7726 38.3967 37.6505 38.5094C37.5097 38.6502 37.3689 38.791 37.2281 38.9224C37.1061 39.035 36.9747 39.1477 36.8433 39.2603C36.7025 39.3917 36.5523 39.5232 36.4021 39.6452C36.2707 39.7578 36.1393 39.8611 36.0079 39.9643C35.8577 40.0864 35.7075 40.2084 35.5573 40.321C35.4165 40.4243 35.2851 40.5275 35.1443 40.6214C34.9847 40.734 34.8345 40.8467 34.6749 40.9499C34.5341 41.0438 34.3933 41.1377 34.2432 41.2315C34.0836 41.3348 33.924 41.438 33.7551 41.5319C33.6049 41.6164 33.4641 41.7009 33.3139 41.7947C33.1449 41.8886 32.9853 41.9825 32.8164 42.0763C32.6662 42.1514 32.516 42.2359 32.3658 42.311C32.1969 42.3955 32.0185 42.48 31.8495 42.5645C31.6994 42.6395 31.5398 42.7053 31.3896 42.771C31.2112 42.8461 31.0329 42.9212 30.8546 42.9962C30.695 43.062 30.5448 43.1183 30.3852 43.184C30.1975 43.2497 30.0191 43.3154 29.8314 43.3811C29.6718 43.4374 29.5216 43.4937 29.3621 43.5407C29.1743 43.597 28.9866 43.6533 28.7989 43.7096C28.6393 43.7566 28.4891 43.8035 28.3295 43.8504C28.2638 43.8692 28.2075 43.8786 28.1512 43.8974C30.3758 41.7384 32.0185 39.0632 32.9478 36.1064C34.7313 36.5757 36.4584 37.2422 38.0917 38.087C38.0542 38.0964 38.0354 38.1245 38.0166 38.1527ZM42.5786 30.9343C41.9027 32.7272 40.9828 34.4168 39.847 35.975C39.8001 36.0313 39.7626 36.097 39.7156 36.1533C39.5936 36.3223 39.4716 36.4725 39.3683 36.6039C39.3308 36.6508 39.2932 36.6978 39.2557 36.7353C39.1994 36.8104 39.143 36.8761 39.0867 36.9418C36.1017 35.5338 30.4603 33.3467 23.0823 33.3091C15.4979 33.2716 9.71562 35.515 6.70248 36.9418C6.68371 36.923 6.66494 36.9043 6.65555 36.8761C6.618 36.8292 6.58046 36.7822 6.54291 36.7353C3.68934 33.2059 2.05605 28.8317 1.89648 24.2791H1.91525C1.90586 23.9787 1.89648 23.669 1.90586 23.3592C1.90586 23.1621 1.91525 22.965 1.91525 22.7772H1.89648C2.05605 18.1965 3.7175 13.8035 6.60862 10.2553C6.64616 10.2084 6.68371 10.1615 6.72126 10.1239C9.38709 11.3911 14.1086 13.2403 20.2757 13.6815C20.9046 13.719 21.5335 13.7472 22.1624 13.7566V13.7753C22.2751 13.7753 22.3971 13.7753 22.5191 13.7753C22.904 13.7753 23.2888 13.7753 23.6643 13.766V13.7566C24.2838 13.7472 24.9034 13.7284 25.5229 13.6909C31.7369 13.2591 36.4866 11.3723 39.1055 10.1333C39.143 10.1708 39.1806 10.2178 39.2181 10.2647C39.3026 10.368 39.4059 10.4994 39.5185 10.6402C39.5561 10.6871 39.5936 10.734 39.6311 10.781C39.6687 10.8279 39.7062 10.8748 39.7344 10.9218C39.7532 10.9406 39.7719 10.9687 39.7907 10.9969C39.8189 11.0344 39.847 11.072 39.8752 11.1095C40.8608 12.4518 41.6775 13.9068 42.3158 15.4274C42.3345 15.465 42.3533 15.5119 42.3627 15.5494C43.2356 17.6521 43.9397 20.271 43.9678 23.331C43.996 26.2222 43.4234 28.7472 42.6443 30.8217C42.6161 30.8498 42.5974 30.8967 42.5786 30.9343Z" fill="black" stroke="black" stroke-width="0.6"/>
<path d="M10.4189 18.2058H12.3902V28.8035H10.4189V18.2058Z" fill="black" stroke="black" stroke-width="0.6"/>
<path d="M16.173 28.6063C15.4126 28.3717 14.8119 28.0619 14.3613 27.6864L15.0466 26.1564C15.4783 26.5037 16.0134 26.7759 16.6423 27.0012C17.2712 27.2171 17.9095 27.3297 18.5384 27.3297C19.3269 27.3297 19.9183 27.2077 20.3031 26.9543C20.688 26.7008 20.8851 26.3723 20.8851 25.9593C20.8851 25.6589 20.7725 25.4055 20.5566 25.2083C20.3407 25.0112 20.0685 24.861 19.7305 24.7484C19.402 24.6357 18.9421 24.5137 18.3695 24.3729C17.5622 24.1852 16.9051 23.9881 16.4076 23.8003C15.9101 23.6126 15.4783 23.3122 15.1217 22.8992C14.765 22.4862 14.5866 21.9418 14.5866 21.2377C14.5866 20.6558 14.7462 20.1207 15.0653 19.642C15.3845 19.1633 15.8632 18.7784 16.5015 18.4968C17.1398 18.2152 17.9283 18.0744 18.8576 18.0744C19.5053 18.0744 20.1436 18.1589 20.7631 18.3185C21.392 18.478 21.927 18.7127 22.387 19.0131L21.7675 20.5431C21.3075 20.2709 20.8194 20.0644 20.3125 19.9236C19.8056 19.7828 19.3175 19.7077 18.8482 19.7077C18.0691 19.7077 17.4965 19.8391 17.1116 20.102C16.7362 20.3648 16.5484 20.7121 16.5484 21.1439C16.5484 21.4443 16.6611 21.6977 16.877 21.8854C17.0929 22.0732 17.3651 22.2327 17.703 22.336C18.0315 22.4486 18.4915 22.5707 19.0641 22.7115C19.8526 22.8898 20.5003 23.0869 20.9977 23.2747C21.5046 23.4718 21.9364 23.7722 22.2931 24.1758C22.6498 24.5794 22.8282 25.1239 22.8282 25.8091C22.8282 26.3911 22.6686 26.9261 22.3494 27.3954C22.0303 27.8742 21.5516 28.2496 20.9039 28.5312C20.2562 28.8128 19.4677 28.9536 18.5384 28.9536C17.7218 28.9536 16.9333 28.841 16.173 28.6063Z" fill="black" stroke="black" stroke-width="0.6"/>
<path d="M26.8084 28.2496C25.9448 27.7803 25.2596 27.1326 24.7621 26.2972C24.2646 25.4618 24.0205 24.5325 24.0205 23.5C24.0205 22.4674 24.2646 21.5381 24.7621 20.7027C25.2596 19.8673 25.9354 19.2196 26.8084 18.7503C27.6719 18.2809 28.6482 18.0463 29.7276 18.0463C30.8071 18.0463 31.7833 18.2809 32.6469 18.7503C33.5105 19.2196 34.1957 19.8673 34.6932 20.6933C35.1907 21.5194 35.4348 22.458 35.4348 23.4906C35.4348 24.5325 35.1907 25.4618 34.6932 26.2878C34.1957 27.1138 33.5199 27.7615 32.6469 28.2309C31.7833 28.7002 30.8071 28.9349 29.7276 28.9349C28.6482 28.9536 27.6719 28.719 26.8084 28.2496ZM31.6331 26.7478C32.1964 26.4286 32.6469 25.9874 32.9661 25.4149C33.2852 24.8423 33.4542 24.204 33.4542 23.5C33.4542 22.796 33.2946 22.1577 32.9661 21.5851C32.6469 21.0125 32.1964 20.5713 31.6331 20.2521C31.0699 19.933 30.4316 19.7734 29.7276 19.7734C29.0236 19.7734 28.3853 19.933 27.8221 20.2521C27.2589 20.5713 26.8084 21.0125 26.4892 21.5851C26.1701 22.1577 26.0011 22.796 26.0011 23.5C26.0011 24.204 26.1607 24.8423 26.4892 25.4149C26.8084 25.9874 27.2589 26.4286 27.8221 26.7478C28.3853 27.0669 29.0236 27.2265 29.7276 27.2265C30.4316 27.2265 31.0699 27.0669 31.6331 26.7478Z" fill="black" stroke="black" stroke-width="0.6"/>
</svg>
