<svg width="52" height="45" viewBox="0 0 52 45" fill="none" xmlns="http://www.w3.org/2000/svg">
<g clip-path="url(#clip0_184_6398)">
<path d="M25.6205 20.451H43.5415C41.7914 15.7607 37.9412 12.6105 34.931 10.4404C29.4007 6.59018 21.9803 6.59018 16.38 10.4404C13.2998 12.5405 9.51963 15.7607 7.76953 20.451H25.6205Z" fill="#1B3281"/>
<path d="M25.6211 0.5V43.4124H33.3215V38.0221" stroke="black" stroke-width="2.80016" stroke-miterlimit="10"/>
<path d="M25.6223 22.9014H49.2136C46.8334 16.4611 42.5632 12.1208 38.363 9.18065C30.7325 3.86036 20.442 3.86036 12.8115 9.18065C8.61131 12.1208 4.41107 16.5311 1.96094 22.9014H25.6223Z" stroke="black" stroke-width="2.80016" stroke-miterlimit="10"/>
<path d="M25.6213 4.77051C25.6213 4.77051 14.2806 12.1909 12.8105 22.9015" stroke="black" stroke-width="2.80016" stroke-miterlimit="10"/>
<path d="M25.6211 4.77051C25.6211 4.77051 36.9617 12.1909 38.4318 22.9015" stroke="black" stroke-width="2.80016" stroke-miterlimit="10"/>
</g>
<defs>
<clipPath id="clip0_184_6398">
<rect width="51.2428" height="44.3125" fill="white" transform="translate(0 0.5)"/>
</clipPath>
</defs>
</svg>
