<svg width="49" height="47" viewBox="0 0 49 47" fill="none" xmlns="http://www.w3.org/2000/svg">
<g clip-path="url(#clip0_184_6416)">
<path d="M21.0717 7.63769C19.3216 5.95759 16.9415 5.04754 14.5613 4.97754C14.4913 4.97754 14.4213 4.97754 14.3513 4.97754C11.7612 4.97754 9.31105 5.95759 7.42094 7.8477C5.53084 9.7378 4.55078 12.2579 4.55078 14.9181C4.62079 17.6482 5.67084 20.0984 7.63095 21.9185L18.7616 33.8191L22.9618 36.2693C23.0318 36.1993 29.4722 39.0694 29.6122 38.9994C30.5222 38.0894 40.7428 27.9388 40.7428 27.9388L27.7221 14.4981L24.9219 14.2181L21.2817 10.7179L22.1218 8.82775L21.0717 7.63769Z" fill="#1B3281"/>
<path d="M44.8729 4.76672C42.1428 2.10657 38.5726 0.636488 34.7224 0.706492C30.8722 0.776496 27.232 2.45659 24.6418 5.25675L24.5018 5.39675L24.3618 5.25675C21.7716 2.45659 18.1314 0.776496 14.2812 0.706492C14.1412 0.706492 14.0712 0.706492 13.9312 0.706492C10.151 0.706492 6.72081 2.17657 4.06066 4.76672C1.40052 7.49687 -0.0695664 11.0671 0.000437496 14.8473C0.0704414 18.6975 1.61053 22.2677 4.41068 24.8578L4.55069 24.9978L4.41068 25.1378C3.08061 26.3979 2.59058 28.288 3.22062 30.1081C3.78065 31.8582 5.32073 33.1183 7.14083 33.3283H7.28084V33.4683C7.14083 34.7284 7.63086 36.0585 8.54091 37.0385C9.45096 38.0186 10.711 38.5786 11.9711 38.5786H12.0411H12.1811V38.7186C12.2511 40.1187 12.9512 41.3788 14.1412 42.2888C15.3313 43.1288 16.8014 43.4089 18.1314 43.0588L18.2715 42.9888L18.3415 43.1288C18.7615 44.8089 20.0215 46.069 21.7016 46.489C23.3817 46.9091 25.1318 46.489 26.3219 45.299C26.4619 45.159 26.6019 45.019 26.7419 44.8789C28.072 43.6189 28.982 42.6388 29.0521 40.6787V40.5387H29.1921C31.6422 40.4687 33.6723 38.3686 33.7423 35.9184V35.7784H33.8823C36.3325 35.7084 38.4326 33.6083 38.5026 31.1582V31.0182H38.6426C39.8327 31.0182 41.0927 30.4581 41.9328 29.4781C42.8428 28.568 43.2628 27.308 43.2628 26.1179V26.0479L44.7329 24.5778C50.2632 19.1175 50.2632 10.227 44.8729 4.76672ZM7.77087 30.5982C7.21084 30.5982 6.72081 30.3881 6.37079 30.0381C5.74076 29.4081 5.46074 28.288 6.37079 27.238L7.70087 25.9079C8.05089 25.5579 8.54091 25.3479 9.10094 25.3479C9.87099 25.3479 10.571 25.8379 10.921 26.5379C11.2011 27.308 11.0611 28.078 10.501 28.708L9.17095 30.0381C8.68092 30.3881 8.19089 30.5982 7.77087 30.5982ZM13.5812 35.0784C13.1612 35.5684 12.6011 35.8484 12.0411 35.7784C12.0411 35.7784 12.0411 35.7784 11.9711 35.7784C11.4811 35.7784 10.991 35.5684 10.641 35.2184C10.291 34.8684 10.081 34.3084 10.081 33.8183C10.081 33.3283 10.291 32.7683 10.641 32.4183L11.9711 31.0882C12.3211 30.7382 12.8111 30.5281 13.3712 30.5281C14.1412 30.5281 14.8413 31.0182 15.1913 31.7182C15.4713 32.4883 15.3313 33.2583 14.7713 33.8883L13.5812 35.0784ZM19.6715 38.5086L18.3415 39.8387C17.9914 40.1887 17.4314 40.3987 16.9414 40.3987C16.4514 40.3987 15.9613 40.1887 15.5413 39.8387C15.1913 39.4886 14.9813 38.9986 14.9813 38.4386C14.9813 37.8786 15.1913 37.3885 15.5413 37.0385L16.7314 35.8484C17.0814 35.4284 17.6414 35.1484 18.2014 35.1484C18.7615 35.1484 19.2515 35.3584 19.6715 35.7084C20.0215 36.0585 20.2316 36.5485 20.2316 37.1085C20.3016 37.5985 20.0916 38.0886 19.6715 38.5086ZM25.7619 42.0088L24.4318 43.3389C24.0818 43.6889 23.5917 43.8989 23.0317 43.8989C22.4717 43.8989 21.9817 43.6889 21.6316 43.3389C21.2816 42.9888 21.0716 42.4988 21.0716 41.9388C21.0716 41.3788 21.2816 40.8887 21.6316 40.5387L22.9617 39.2086C23.3117 38.8586 23.8018 38.6486 24.3618 38.6486C24.9218 38.6486 25.4118 38.8586 25.7619 39.2086C26.1119 39.5587 26.3219 40.0487 26.3219 40.6087C26.3219 41.0987 26.1119 41.6588 25.7619 42.0088ZM39.9727 27.588C39.6226 27.938 39.1326 28.148 38.5726 28.148C38.0126 28.148 37.5225 27.938 37.1725 27.588L30.2421 20.6576L28.282 22.6177L35.2124 29.5481C35.5624 29.8981 35.7724 30.3881 35.7724 30.9482C35.7724 31.5082 35.5624 31.9982 35.2124 32.3483C34.8624 32.6983 34.3723 32.9083 33.8123 32.9083C33.2523 32.9083 32.7623 32.6983 32.4122 32.3483L25.4819 25.4179L23.5217 27.378L30.4521 34.3084C31.2222 35.0784 31.2222 36.3385 30.4521 37.1085C30.1021 37.4585 29.5421 37.6685 29.0521 37.6685C28.632 37.6685 28.142 37.5285 27.792 37.1785L27.652 37.0385C26.4619 35.9184 24.7118 35.4284 23.1017 35.8484L22.9617 35.9184L22.8917 35.7784C22.4017 33.7483 20.3716 32.2082 18.2715 32.2782H18.1314V32.1382C18.0614 29.9681 16.1713 28.008 14.0012 27.728H13.8612V27.588C14.0012 25.8379 13.1612 24.2278 11.6211 23.2477C10.081 22.2677 8.2609 22.1977 6.72081 23.1077H6.65081L6.5808 23.0377C4.27067 21.0076 2.8706 18.0675 2.80059 14.9173C2.73059 11.8371 3.85065 8.89695 6.02077 6.72683C8.19089 4.55671 11.1311 3.36664 14.2112 3.50665C17.2914 3.57665 20.3016 4.97673 22.3317 7.28686L22.4717 7.42687L18.5515 11.3471L21.5616 14.3573C23.8718 16.6674 27.512 17.0174 30.2421 15.3373L30.3821 15.2673L30.4521 15.3373L39.9727 24.8578C40.7427 25.6279 40.7427 26.8179 39.9727 27.588ZM42.8428 22.5477L42.2128 23.1777L42.0728 23.0377C42.0028 22.9677 41.9328 22.8977 41.9328 22.8977L30.4521 11.3471L29.4721 12.3271C27.862 13.9372 25.2018 13.9372 23.5917 12.3271L22.5417 11.2771L27.0919 6.72683C32.6923 1.54654 39.2026 3.15663 42.8428 6.79683C46.483 10.437 48.0231 16.9474 42.8428 22.5477Z" fill="black"/>
</g>
<defs>
<clipPath id="clip0_184_6416">
<rect width="48.9327" height="45.9926" fill="white" transform="translate(0 0.707031)"/>
</clipPath>
</defs>
</svg>
