<svg width="1106" height="687" viewBox="0 0 1106 687" fill="none" xmlns="http://www.w3.org/2000/svg">
<path d="M473.974 80L458.026 80L450 66L458.026 52L474.077 52L482 66L473.974 80ZM458.54 52.9333L451.132 66L458.54 78.963L473.46 78.963L480.868 66L473.46 53.037L458.54 53.037L458.54 52.9333Z" fill="white" fill-opacity="0.2"/>
<path d="M449 177L457 163L473 163L481 177L473 191L457 191L449 177ZM472.385 190.067L479.769 177L472.385 164.037L457.615 164.037L450.231 177L457.615 189.963L472.385 189.963L472.385 190.067Z" fill="white" fill-opacity="0.2"/>
<path d="M587.725 109L611.275 109L623 129.5L611.275 150L587.725 150L576 129.5L587.725 109ZM610.664 148.975L621.879 129.5L610.664 110.025L588.336 110.025L577.121 129.5L588.336 148.975L610.664 148.975Z" fill="white" fill-opacity="0.2"/>
<path d="M462.102 155.799L462.102 154.785L478.139 154.481L496.41 129.223L477.936 86.5195L462 86.5195L462 85.5051L477.936 85.5051L484.534 71L485.447 71.4057L478.85 86.1137L497.323 128.919L570 128.919L570 129.933L497.222 129.933L478.951 155.191L485.853 169.594L484.94 170L478.038 155.596L462.102 155.799Z" fill="white" fill-opacity="0.2"/>
<path d="M613.881 104.82L632.514 63.9124L633.439 64.3339L614.806 105.241L613.881 104.82Z" fill="white" fill-opacity="0.2"/>
<path d="M805.213 123.968L801.548 130.263L778.034 130.263L766.328 109.957L772.436 99.3978C760.017 77.8734 747.599 56.3491 735.078 34.9263L732.839 34.9263L728.971 28.2253L691.817 28.2253C685.607 38.8859 679.5 49.5466 673.291 60.1057L635.73 60.1057C629.419 49.3435 623.209 38.4798 617 27.7177C622.293 18.4784 627.688 9.23922 633.083 -7.03013e-07L634.203 -7.51957e-07L618.221 27.7177L636.442 59.1919L672.782 59.1919L691.002 27.7177L674.919 -2.53174e-06L676.039 -2.58068e-06C681.332 9.03616 686.524 18.1738 691.817 27.21L728.36 27.21L728.258 27.0069L732.839 19.0876L735.587 19.0876C739.353 12.6912 743.018 6.29485 746.682 -5.6686e-06L747.802 -5.71754e-06L736.809 18.9861L742.102 18.9861L743.221 20.9152C747.293 13.9096 751.263 7.00556 755.335 -6.0468e-06L756.454 -6.09574e-06L743.73 21.9305L746.682 27.0069L743.527 32.4896L777.423 90.9708L778.136 89.7524L801.65 89.7524L813.356 110.058L810.099 115.643L867.407 115.643L866.186 113.612L884.915 81.2239L913.519 81.2239L940.392 34.8247L935.913 27.1085L940.086 19.8998L928.787 -1.36287e-05L929.907 -1.36776e-05C933.572 6.29484 937.236 12.6912 940.901 18.9861L948.433 18.9861L937.44 -1.40069e-05L938.661 -1.40603e-05C942.326 6.29484 945.99 12.6912 949.655 18.9861L949.96 18.9861L954.235 26.4993L992 26.4993L992 27.5146L954.439 27.5146C943.954 45.6884 933.47 63.7608 922.985 81.9346L941.308 113.612L922.578 146L885.017 146L872.293 124.07L805.213 124.07L805.213 123.968ZM767.448 110.058L778.645 129.349L800.937 129.349L803.991 124.07L786.686 124.07C782.106 116.252 777.627 108.332 773.046 100.515L767.448 110.058ZM804.602 123.054L808.368 116.556L791.063 116.556C786.483 108.637 782.004 100.819 777.423 92.8998L773.657 99.3978L787.297 122.953L804.602 122.953L804.602 123.054ZM742.916 33.5049L742.102 34.9263L736.3 34.9263L773.046 98.484L776.813 91.9861C765.514 72.4923 754.215 52.9986 742.916 33.5049ZM812.134 110.058L800.937 90.7677L778.645 90.7677L777.932 91.9861L791.572 115.541L808.877 115.541L812.134 110.058ZM809.488 116.556L805.722 123.054L871.682 123.054L867.916 116.556L809.488 116.556ZM869.138 116.556L872.904 123.054L897.945 123.054L921.662 82.1377L914.129 82.1377C907.513 93.6105 900.795 105.083 894.178 116.556L869.138 116.556ZM885.628 82.0361L867.407 113.51L868.629 115.541L893.669 115.541L913.01 82.0361L885.628 82.0361ZM922.273 81.1224L948.942 34.9263L941.41 34.9263C932.554 50.3588 923.596 65.6898 914.74 81.1224L922.273 81.1224ZM885.628 144.985L921.967 144.985L940.188 113.51L922.476 82.8484C914.537 96.5549 906.597 110.261 898.657 124.07L873.616 124.07L885.628 144.985Z" fill="white" fill-opacity="0.2"/>
<path d="M1078.03 547L1095.97 547L1105 562.5L1095.97 578L1077.91 578L1069 562.5L1078.03 547ZM1095.39 576.967L1103.73 562.5L1095.39 548.148L1078.61 548.148L1070.27 562.5L1078.61 576.852L1095.39 576.852L1095.39 576.967Z" fill="white" fill-opacity="0.2"/>
<path d="M1106 438.5L1097 454L1079 454L1070 438.5L1079 423L1097 423L1106 438.5ZM1079.69 424.033L1071.38 438.5L1079.69 452.852L1096.31 452.852L1104.62 438.5L1096.31 424.148L1079.69 424.148L1079.69 424.033Z" fill="white" fill-opacity="0.2"/>
<path d="M951.028 514L924.972 514L912 491.5L924.972 469L951.028 469L964 491.5L951.028 514ZM925.649 470.125L913.241 491.5L925.649 512.875L950.351 512.875L962.759 491.5L950.351 470.125L925.649 470.125Z" fill="white" fill-opacity="0.2"/>
<path d="M1091.89 461.922L1091.89 463.059L1073.92 463.401L1053.45 491.719L1074.15 539.599L1092 539.599L1092 540.737L1074.15 540.737L1066.75 557L1065.73 556.545L1073.12 540.054L1052.42 492.06L971 492.06L971 490.923L1052.54 490.923L1073.01 462.605L1065.28 446.455L1066.3 446L1074.03 462.15L1091.89 461.922Z" fill="white" fill-opacity="0.2"/>
<path d="M922.128 519.107L901.349 564.726L900.317 564.256L921.096 518.637L922.128 519.107Z" fill="white" fill-opacity="0.2"/>
<path d="M709.206 497.597L713.29 490.57L739.501 490.57L752.549 513.24L745.741 525.029C759.584 549.059 773.426 573.09 787.382 597.007L789.878 597.007L794.19 604.488L835.604 604.488C842.526 592.586 849.333 580.684 856.255 568.896L898.123 568.896C905.157 580.911 912.079 593.04 919 605.055C913.1 615.37 907.086 625.685 901.073 636L899.825 636L917.638 605.055L897.328 569.916L856.822 569.916L836.512 605.055L854.439 636L853.191 636C847.291 625.912 841.504 615.71 835.604 605.622L794.871 605.622L794.984 605.848L789.878 614.69L786.815 614.69C782.617 621.831 778.532 628.972 774.447 636L773.199 636L785.453 614.803L779.553 614.803L778.305 612.65C773.767 620.471 769.341 628.179 764.803 636L763.555 636L777.738 611.516L774.447 605.848L777.965 599.727L740.181 534.437L739.387 535.797L713.177 535.797L700.129 513.127L703.76 506.892L639.88 506.892L641.241 509.159L620.364 545.318L588.481 545.318L558.526 597.12L563.518 605.735L558.866 613.783L571.461 636L570.213 636C566.128 628.972 562.043 621.831 557.959 614.803L549.563 614.803L561.817 636L560.455 636C556.37 628.972 552.286 621.831 548.201 614.803L547.861 614.803L543.095 606.415L501 606.415L501 605.282L542.868 605.282C554.555 584.992 566.242 564.815 577.928 544.525L557.505 509.159L578.382 473L620.25 473L634.433 497.484L709.206 497.484L709.206 497.597ZM751.301 513.127L738.82 491.59L713.971 491.59L710.567 497.484L729.856 497.484C734.962 506.212 739.954 515.054 745.06 523.782L751.301 513.127ZM709.887 498.618L705.688 505.872L724.977 505.872C730.083 514.713 735.075 523.442 740.181 532.283L744.379 525.029L729.175 498.731L709.887 498.731L709.887 498.618ZM778.646 598.594L779.553 597.007L786.021 597.007L745.06 526.049L740.862 533.303C753.457 555.067 766.051 576.83 778.646 598.594ZM701.49 513.127L713.971 534.663L738.82 534.663L739.614 533.303L724.41 507.006L705.121 507.006L701.49 513.127ZM704.44 505.872L708.638 498.618L635.114 498.618L639.312 505.872L704.44 505.872ZM637.951 505.872L633.752 498.618L605.84 498.618L579.403 544.298L587.8 544.298C595.175 531.49 602.663 518.681 610.039 505.872L637.951 505.872ZM619.569 544.412L639.88 509.273L638.518 507.006L610.606 507.006L589.048 544.412L619.569 544.412ZM578.723 545.432L548.995 597.007L557.391 597.007C567.263 579.777 577.248 562.661 587.119 545.432L578.723 545.432ZM619.569 474.134L579.063 474.134L558.753 509.273L578.496 543.505C587.346 528.202 596.196 512.9 605.046 497.484L632.958 497.484L619.569 474.134Z" fill="white" fill-opacity="0.2"/>
<path d="M41.0289 236L58.9711 236L68 251.5L58.9711 267L40.9132 267L32 251.5L41.0289 236ZM58.3923 265.967L66.7267 251.5L58.3923 237.148L41.6077 237.148L33.2733 251.5L41.6077 265.852L58.3923 265.852L58.3923 265.967Z" fill="white" fill-opacity="0.2"/>
<path d="M69 127.5L60 143L42 143L33 127.5L42 112L60 112L69 127.5ZM42.6923 113.033L34.3846 127.5L42.6923 141.852L59.3077 141.852L67.6154 127.5L59.3077 113.148L42.6923 113.148L42.6923 113.033Z" fill="white" fill-opacity="0.2"/>
<path d="M54.8863 150.922L54.8863 152.059L36.9182 152.401L16.4483 180.719L37.1457 228.599L55 228.599L55 229.737L37.1457 229.737L29.7538 246L28.7303 245.545L36.1222 229.054L15.4248 181.06L-66 181.06L-66 179.923L15.5385 179.923L36.0085 151.605L28.2754 135.455L29.2989 135L37.032 151.15L54.8863 150.922Z" fill="white" fill-opacity="0.2"/>
</svg>
