<svg width="1440" height="827" viewBox="0 0 1440 827" fill="none" xmlns="http://www.w3.org/2000/svg">
<mask id="mask0_194_6315" style="mask-type:alpha" maskUnits="userSpaceOnUse" x="0" y="0" width="1440" height="827">
<rect width="1440" height="827" fill="#1B3281"/>
</mask>
<g mask="url(#mask0_194_6315)">
<path d="M759.59 782L718.59 782L698 818L718.59 854L759.59 854L780 818L759.59 782ZM719.493 852.173L699.987 818L719.493 783.827L758.507 783.827L778.013 818L758.507 852.173L719.493 852.173Z" fill="white" fill-opacity="0.2"/>
<path d="M953 728.721L951.364 728L909.545 817.198L783 817.198L783 819L910.636 819L910.636 818.279L910.818 818.459L953 728.721Z" fill="white" fill-opacity="0.2"/>
<path d="M1265.32 827.515L1417.16 827.515L1444.8 779.517L1463.71 779.517L1477.71 755.244L1468.07 738.637L1506.62 671.659L1507.17 671.659L1514.81 658.519L1609 658.519L1609 656.694L1515.17 656.694L1459.89 560.333L1492.26 504.305L1459.53 447.365L1459.34 447L1393.34 447L1370.97 485.69L1252.95 485.69L1246.59 474.558L1205.31 474.558L1184.58 510.51L1195.31 529.308L1129.66 643.371L1125.66 643.371L1118.75 655.234L1053.47 655.234L1020.92 598.841L954.913 598.841L922 656.146L954.913 713.452L1020.92 713.452L1053.47 657.059L1117.66 657.059L1117.48 657.424L1125.66 671.476L1130.75 671.476L1201.67 794.665L1184.76 824.047L1205.49 860L1246.77 860L1265.32 827.515ZM956.186 711.809L924.182 656.146L956.186 600.483L1020.19 600.483L1052.2 656.146L1020.19 711.809L956.186 711.809ZM1416.07 825.69L1266.23 825.69L1267.14 824.047L1261.5 814.192L1409.34 814.192L1432.61 773.859L1435.89 779.517L1442.61 779.517L1416.07 825.69ZM1214.04 789.92L1228.04 814.192L1259.5 814.192L1265.14 824.047L1264.23 825.69L1221.49 825.69L1203.67 794.665L1206.4 789.92L1214.04 789.92ZM1150.03 657.424L1144.39 647.751L1203.86 544.273L1205.13 546.463L1246.41 546.463L1267.14 510.51L1261.5 500.655L1362.24 500.655L1360.24 504.305L1392.97 561.246L1393.15 561.611L1443.52 561.611L1490.8 643.736L1482.98 657.424L1490.44 670.199L1455.53 730.972L1436.07 730.972L1422.07 755.244L1431.7 772.217L1408.43 812.732L1260.59 812.732L1246.59 788.46L1215.13 788.46L1145.12 666.549L1150.03 657.424ZM1251.86 487.515L1258.41 499.013L1227.86 499.013L1203.86 540.806L1197.31 529.308L1221.31 487.515L1251.86 487.515ZM1228.95 500.655L1259.5 500.655L1265.14 510.51L1245.5 544.638L1206.22 544.638L1204.95 542.448L1228.95 500.655ZM1492.44 643.371L1445.52 561.793L1458.62 561.793L1505.53 643.371L1492.44 643.371ZM1444.43 559.968L1409.7 499.378L1409.52 499.013L1365.33 499.013L1371.88 487.515L1415.88 487.515L1457.53 559.968L1444.43 559.968ZM1408.43 500.655L1442.43 559.786L1394.24 559.786L1362.24 504.123L1364.24 500.473L1408.43 500.473L1408.43 500.655ZM1432.61 770.392L1423.88 755.244L1436.8 732.797L1454.25 732.797L1432.61 770.392ZM1456.43 732.797L1462.8 732.797L1466.25 738.637L1443.71 777.692L1436.98 777.692L1433.7 772.034L1456.43 732.797ZM1245.5 789.92L1258.41 812.55L1228.95 812.55L1216.04 789.92L1245.5 789.92ZM1475.71 755.244L1462.8 777.692L1445.71 777.692L1467.16 740.279L1475.71 755.244ZM1467.16 736.812L1463.71 730.972L1457.34 730.972L1491.53 671.476L1504.62 671.476L1467.16 736.812ZM1394.24 448.825L1458.25 448.825L1490.26 504.488L1458.98 558.691L1417.34 486.238L1417.16 485.873L1373.15 485.873L1394.24 448.825ZM1369.88 487.515L1363.33 499.013L1260.59 499.013L1254.04 487.515L1369.88 487.515ZM1186.58 510.51L1206.22 476.383L1245.5 476.383L1250.95 485.69L1220.4 485.69L1196.4 527.483L1186.58 510.51ZM1196.4 530.951L1202.95 542.448L1143.48 645.926L1142.03 643.371L1131.85 643.371L1196.4 530.951ZM1132.76 671.476L1142.03 671.476L1144.03 668.009L1213.13 788.095L1205.31 788.095L1202.58 792.84L1132.76 671.476ZM1206.22 858.175L1186.58 824.047L1202.58 796.307L1220.4 827.332L1263.14 827.332L1245.5 857.992L1206.22 857.992L1206.22 858.175Z" fill="white" fill-opacity="0.2"/>
<path d="M34 301.59L34 260.59L-2 240L-38 260.59L-38 301.59L-2 322L34 301.59ZM-36.1726 261.493L-2 241.987L32.1726 261.493L32.1726 300.507L-2 320.013L-36.1726 300.507L-36.1726 261.493Z" fill="white" fill-opacity="0.2"/>
<path d="M87.2792 495L88 493.364L-1.19802 451.545L-1.19802 325L-3 325L-3 452.636L-2.2792 452.636L-2.4594 452.818L87.2792 495Z" fill="white" fill-opacity="0.2"/>
<path d="M-11.5148 807.318L-11.5148 959.156L36.483 986.796L36.483 1005.71L60.7557 1019.71L77.3633 1010.07L144.341 1048.62L144.341 1049.17L157.481 1056.81L157.481 1151L159.306 1151L159.306 1057.17L255.667 1001.89L311.695 1034.26L368.635 1001.53L369 1001.34L369 935.335L330.31 912.969L330.31 794.953L341.442 788.588L341.442 747.31L305.49 726.58L286.692 737.309L172.629 671.664L172.629 667.663L160.766 660.753L160.766 595.472L217.159 562.922L217.159 496.913L159.854 464L102.548 496.913L102.548 562.922L158.941 595.472L158.941 659.662L158.576 659.48L144.524 667.663L144.524 672.755L21.3354 743.673L-8.04723 726.762L-44 747.492L-44 788.77L-11.5148 807.318ZM104.191 498.186L159.854 466.182L215.517 498.186L215.517 562.195L159.854 594.199L104.191 562.195L104.191 498.186ZM-9.68978 958.065L-9.68978 808.227L-8.04723 809.137L1.80781 803.499L1.80781 951.337L42.1406 974.613L36.483 977.886L36.483 984.614L-9.68978 958.065ZM26.0805 756.039L1.80781 770.04L1.80781 801.499L-8.04723 807.136L-9.68978 806.227L-9.68978 763.494L21.3354 745.674L26.0805 748.401L26.0805 756.039ZM158.576 692.03L168.249 686.393L271.727 745.855L269.537 747.128L269.537 788.407L305.49 809.137L315.345 803.499L315.345 904.24L311.695 902.24L254.754 934.971L254.389 935.153L254.389 985.524L172.264 1032.8L158.576 1024.98L145.801 1032.44L85.0283 997.525L85.0283 978.068L60.7557 964.066L43.7831 973.704L3.26783 950.428L3.26783 802.59L27.5405 788.588L27.5405 757.13L149.451 687.12L158.576 692.03ZM328.485 793.862L316.987 800.408L316.987 769.859L275.194 745.855L286.692 739.309L328.485 763.312L328.485 793.862ZM315.345 770.95L315.345 801.499L305.49 807.136L271.362 787.497L271.362 748.219L273.552 746.947L315.345 770.95ZM172.629 1034.44L254.207 987.524L254.207 1000.62L172.629 1047.53L172.629 1034.44ZM256.032 986.433L316.622 951.701L316.987 951.519L316.987 907.331L328.485 913.878L328.485 957.884L256.032 999.525L256.032 986.433ZM315.345 950.428L256.214 984.433L256.214 936.244L311.877 904.24L315.527 906.24L315.527 950.428L315.345 950.428ZM45.6081 974.613L60.7557 965.885L83.2033 978.795L83.2033 996.252L45.6081 974.613ZM83.2033 998.434L83.2033 1004.8L77.3633 1008.25L38.308 985.705L38.308 978.977L43.9656 975.704L83.2033 998.434ZM26.0805 787.497L3.45033 800.408L3.45033 770.95L26.0805 758.039L26.0805 787.497ZM60.7557 1017.71L38.308 1004.8L38.308 987.706L75.7207 1009.16L60.7557 1017.71ZM79.1883 1009.16L85.0283 1005.71L85.0283 999.344L144.524 1033.53L144.524 1046.62L79.1883 1009.16ZM367.175 936.244L367.175 1000.25L311.512 1032.26L257.309 1000.98L329.762 959.338L330.127 959.156L330.127 915.151L367.175 936.244ZM328.485 911.877L316.987 905.331L316.987 802.59L328.485 796.044L328.485 911.877ZM305.49 728.58L339.617 748.219L339.617 787.497L330.31 792.953L330.31 762.403L288.517 738.4L305.49 728.58ZM285.05 738.4L273.552 744.946L170.074 685.484L172.629 684.029L172.629 673.846L285.05 738.4ZM144.524 674.755L144.524 684.029L147.991 686.029L27.9055 755.129L27.9055 747.31L23.1604 744.583L144.524 674.755ZM-42.1749 748.219L-8.04723 728.58L19.6929 744.583L-11.3322 762.403L-11.3322 805.136L-41.9925 787.497L-41.9925 748.219L-42.1749 748.219Z" fill="white" fill-opacity="0.2"/>
</g>
</svg>
