<svg width="123" height="368" viewBox="0 0 123 368" fill="none" xmlns="http://www.w3.org/2000/svg">
<path d="M24.5974 197.794L17.5696 193.71L17.5696 167.499L40.2399 154.451L52.0285 161.259C76.0591 147.416 100.09 133.574 124.007 119.618L124.007 117.122L131.488 112.81L131.488 71.3958C119.586 64.4745 107.684 57.6667 95.8957 50.7454L95.8957 8.8773C107.911 1.84256 120.04 -5.07872 132.055 -12C142.37 -6.09989 152.685 -0.0863162 163 5.92726L163 7.17534L132.055 -10.6384L96.9159 9.67155L96.9159 50.1781L132.055 70.488L163 52.5608L163 53.8089C152.912 59.709 142.71 65.4957 132.622 71.3958L132.622 112.129L132.848 112.016L141.69 117.122L141.69 120.185C148.831 124.383 155.972 128.468 163 132.553L163 133.801L141.803 121.547L141.803 127.447L139.65 128.695C147.471 133.233 155.179 137.659 163 142.197L163 143.445L138.516 129.262L132.848 132.553L126.727 129.035L61.4367 166.819L62.797 167.613L62.797 193.823L40.1266 206.871L33.8922 203.24L33.8922 267.12L36.1593 265.759L72.3185 286.636L72.3185 318.52L124.12 348.474L132.735 343.482L140.783 348.134L163 335.539L163 336.787C155.972 340.872 148.831 344.957 141.803 349.041L141.803 357.438L163 345.183L163 346.545C155.972 350.63 148.831 354.714 141.803 358.799L141.803 359.139L133.415 363.905L133.415 406L132.282 406L132.282 364.132C111.992 352.445 91.8151 340.758 71.5251 329.072L36.1593 349.495L4.50365e-05 328.618L4.13763e-05 286.75L24.484 272.567L24.484 197.794L24.5974 197.794ZM40.1266 155.699L18.5897 168.18L18.5897 193.029L24.484 196.433L24.484 177.144C33.2121 172.038 42.0536 167.046 50.7817 161.94L40.1266 155.699ZM25.6176 197.113L32.8721 201.312L32.8721 182.023C41.7135 176.917 50.4416 171.925 59.2831 166.819L52.0285 162.621L25.7309 177.825L25.7309 197.113L25.6176 197.113ZM125.594 128.354L124.007 127.447L124.007 120.979L53.0487 161.94L60.3032 166.138C82.0668 153.543 103.83 140.949 125.594 128.354ZM40.1266 205.51L61.6634 193.029L61.6634 168.18L60.3032 167.386L34.0056 182.59L34.0056 201.879L40.1266 205.51ZM32.8721 202.56L25.6176 198.362L25.6176 271.886L32.8721 267.688L32.8721 202.56ZM32.8721 269.049L25.6176 273.248L25.6176 301.16L71.2984 327.597L71.2984 319.2C58.4896 311.825 45.6808 304.337 32.8721 296.961L32.8721 269.049ZM71.4117 287.431L36.2726 267.12L34.0056 268.482L34.0056 296.394L71.4117 317.952L71.4117 287.431ZM72.4319 328.277L124.007 358.005L124.007 349.609C106.778 339.737 89.6614 329.752 72.4319 319.881L72.4319 328.277ZM1.13356 287.431L1.13356 327.937L36.2726 348.247L70.5049 328.504C55.2024 319.654 39.8999 310.804 24.4841 301.954L24.484 274.042L1.13356 287.431Z" fill="white" fill-opacity="0.2"/>
</svg>
