<svg width="643" height="704" viewBox="0 0 643 704" fill="none" xmlns="http://www.w3.org/2000/svg">
<rect x="70.7393" y="327.757" width="127.33" height="1" fill="#1B3281"/>
<path d="M382.994 220.95L444.918 328.54L382.994 436.131L259.156 436.131L197.231 328.54L259.156 220.95L382.994 220.95Z" stroke="#1B3281" stroke-width="4"/>
<path d="M397.813 196.307L474.158 328.54L397.813 460.774L245.123 460.774L168.778 328.54L245.123 196.307L397.813 196.307Z" stroke="#CDCDCD"/>
<path d="M369.125 245.263L416.783 328.147L369.125 411.031L273.813 411.031L226.155 328.147L273.813 245.263L369.125 245.263Z" stroke="#1B3281"/>
<path d="M309.744 328.4V327.597C311.938 326.589 313.268 324.331 313.268 321.749C313.268 317.718 309.744 314.291 302.647 314.291H287.859V343.07H303.06C310.613 343.07 314.229 339.522 314.229 334.846C314.229 331.948 312.261 329.367 309.744 328.4ZM293.359 318.481H302.149C306.178 318.481 307.643 319.893 307.643 322.271C307.643 324.65 306.178 326.105 302.149 326.105H293.359V318.481ZM302.331 338.884H293.359V330.216H302.331C306.91 330.216 308.604 331.828 308.604 334.53C308.598 337.189 306.905 338.883 302.326 338.883L302.331 338.884Z" fill="#1B3281"/>
<path d="M345.133 314.288H339.411L332.589 325.295H331.215L324.531 314.288H318.762L326.912 327.916L317.435 343.076H323.386L331.17 330.617H332.543L340.143 343.076H346.324L336.846 327.754L345.133 314.288Z" fill="#1B3281"/>
<path d="M371.005 328.162V327.383C372.788 326.604 374.434 324.813 374.434 321.737C374.434 317.572 370.267 314.262 362.669 314.262C355.572 314.262 350.857 317.261 350.17 322.244H355.846C356.441 319.752 358.726 318.506 362.622 318.506C366.103 318.506 368.803 319.791 368.803 322.322C368.803 324.346 367.475 326.099 363.401 326.099H358.37V330.264H363.405C368.12 330.264 369.952 331.937 369.952 334.469C369.952 337.194 367.113 338.829 362.855 338.829C358.37 338.829 355.531 337.389 354.66 334.508H348.899C349.762 339.763 354.294 343.07 362.81 343.07C371.096 343.07 375.675 339.216 375.675 334.621C375.675 330.926 373.615 328.98 371.005 328.162Z" fill="#1B3281"/>
<path d="M382.522 316.668C382.579 316.551 382.619 316.427 382.64 316.298C382.677 316.087 382.694 315.873 382.69 315.659C382.69 315.163 382.608 314.821 382.441 314.629C382.361 314.536 382.261 314.462 382.149 314.412C382.037 314.362 381.915 314.338 381.792 314.341H380.851C380.739 314.336 380.627 314.361 380.526 314.412C380.426 314.464 380.341 314.54 380.279 314.634C380.151 314.824 380.065 315.038 380.026 315.263C379.99 315.454 379.97 315.648 379.967 315.842C379.967 315.864 379.967 315.874 379.974 315.874H380.248C380.255 315.542 380.315 315.125 380.421 314.958C380.465 314.88 380.529 314.816 380.607 314.772C380.685 314.728 380.773 314.706 380.862 314.708H381.854C381.969 314.705 382.083 314.742 382.173 314.814C382.272 314.918 382.344 315.045 382.383 315.184C382.42 315.37 382.434 315.561 382.424 315.751C382.43 315.935 382.409 316.12 382.36 316.298C382.317 316.427 382.261 316.595 382.179 316.643C382.081 316.695 381.97 316.72 381.859 316.716H381.061V317.116H381.861C381.975 317.111 382.09 317.129 382.197 317.171C382.273 317.207 382.321 317.349 382.361 317.48C382.408 317.68 382.428 317.885 382.42 318.089C382.426 318.295 382.407 318.501 382.364 318.703C382.326 318.851 382.253 319.133 382.154 319.203C382.066 319.277 381.955 319.319 381.84 319.322H380.851C380.455 319.322 380.259 318.793 380.247 318.151H379.972C379.972 318.665 380.044 319.043 380.186 319.286C380.252 319.403 380.35 319.5 380.468 319.564C380.586 319.628 380.72 319.658 380.854 319.65H381.787C381.953 319.654 382.117 319.606 382.256 319.513C382.41 319.391 382.52 319.221 382.57 319.03C382.656 318.724 382.695 318.406 382.685 318.088C382.689 317.866 382.672 317.645 382.634 317.427C382.615 317.301 382.575 317.179 382.515 317.066C382.485 317.01 382.444 316.96 382.393 316.921L382.321 316.879C382.33 316.879 382.353 316.857 382.391 316.827C382.444 316.783 382.489 316.729 382.522 316.668Z" fill="#1B3281"/>
<path d="M384.102 314.341L383.337 315.933L383.522 316.301L384.221 314.892V319.653H384.511V314.341H384.102Z" fill="#1B3281"/>
<path d="M271.586 323.348L270.633 322.694V349.041L273.41 347.133L271.586 348.386V323.348Z" fill="#585EAA"/>
<path d="M275.858 326.281L275.073 325.743V345.991L279.345 343.058L275.858 345.453V326.281Z" fill="#585EAA"/>
<path d="M266.261 323.313V348.445L263.119 346.303L262.773 346.068V325.726L261.838 326.372V329.693V345.43L258.351 343.053L267.145 349.049V322.703L266.261 323.313Z" fill="#585EAA"/>
<path d="M261.838 321.818C261.838 321.355 261.654 320.911 261.326 320.584C260.998 320.256 260.553 320.072 260.089 320.072H258.351V328.785L261.838 326.374V321.818Z" fill="#585EAA"/>
<path d="M277.588 314.339C277.13 314.339 276.691 314.52 276.368 314.844C276.044 315.167 275.862 315.605 275.862 316.063V326.282L279.349 328.676V314.339H277.588Z" fill="#585EAA"/>
<path d="M266.262 310.695C266.262 310.299 266.133 309.914 265.894 309.598C265.654 309.283 265.319 309.054 264.937 308.946C263.84 308.637 262.774 309.534 262.774 310.669V325.732L266.262 323.32V310.695Z" fill="#585EAA"/>
<path d="M270.632 322.694V307.408C270.632 306.553 270.09 305.75 269.261 305.532C269.013 305.464 268.752 305.453 268.499 305.502C268.247 305.55 268.009 305.657 267.804 305.812C267.599 305.968 267.433 306.168 267.319 306.398C267.204 306.628 267.145 306.882 267.145 307.139V322.703L268.889 321.498L270.632 322.694Z" fill="#585EAA"/>
<path d="M275.073 325.743V311.091C275.074 310.694 274.945 310.308 274.706 309.991C274.467 309.674 274.131 309.445 273.748 309.336C272.651 309.028 271.584 309.925 271.584 311.059V323.352L273.41 324.605L275.073 325.743Z" fill="#585EAA"/>
<path d="M275.858 345.453L279.345 343.058V328.676L275.858 326.281V345.453Z" fill="#1B3281"/>
<path d="M263.12 346.303L266.262 348.445V323.313L262.774 325.726V346.068L263.12 346.303Z" fill="#1B3281"/>
<path d="M268.889 321.496L267.145 322.703V349.049L268.889 350.237L270.632 349.041V322.694L268.889 321.496Z" fill="#1B3281"/>
<path d="M273.41 324.601L271.586 323.348V348.386L273.41 347.133L275.073 345.991V325.743L273.41 324.601Z" fill="#1B3281"/>
<path d="M261.838 329.693V326.373L258.351 328.784V329.848V343.053L261.838 345.43V329.693Z" fill="#1B3281"/>
<path d="M287.978 350.199V346.495H288.547V348.917L289.758 346.495H290.399V350.199H289.829V347.777L288.619 350.199H287.978Z" fill="#1B3281"/>
<path d="M290.827 350.199V346.495H291.468V347.92H292.678V346.495H293.319V350.199H292.678V348.561H291.468V350.199H290.827Z" fill="#1B3281"/>
<path d="M293.604 350.199V346.495H294.245V347.92H295.456V346.495H296.097V350.199H295.456V348.561H294.245V350.199H293.604Z" fill="#1B3281"/>
<path d="M296.31 348.347C296.31 347.92 296.381 347.564 296.523 347.279C296.666 346.994 296.808 346.78 297.022 346.638C297.235 346.496 297.449 346.424 297.805 346.424C298.232 346.424 298.589 346.567 298.873 346.923C299.158 347.279 299.301 347.706 299.301 348.347C299.301 348.988 299.158 349.416 298.873 349.772C298.589 350.056 298.304 350.199 297.876 350.199C297.449 350.199 297.093 350.056 296.879 349.772C296.452 349.416 296.31 348.988 296.31 348.347ZM296.951 348.347C296.951 348.775 297.022 349.059 297.164 349.273C297.307 349.487 297.52 349.558 297.734 349.558C297.948 349.558 298.161 349.487 298.304 349.273C298.446 349.059 298.517 348.775 298.517 348.276C298.517 347.849 298.446 347.564 298.304 347.35C298.161 347.137 297.948 347.065 297.734 347.065C297.52 347.065 297.307 347.137 297.164 347.35C297.022 347.564 296.951 347.92 296.951 348.347Z" fill="#1B3281"/>
<path d="M299.515 346.495H300.725C301.081 346.495 301.295 346.495 301.438 346.567C301.58 346.638 301.651 346.709 301.794 346.852C301.865 346.994 301.936 347.208 301.936 347.35C301.936 347.493 301.865 347.706 301.794 347.849C301.722 347.991 301.58 348.062 301.509 348.134C301.722 348.205 301.794 348.276 301.936 348.49C302.007 348.632 302.079 348.846 302.079 349.059C302.079 349.344 302.007 349.558 301.865 349.772C301.722 349.985 301.58 350.056 301.438 350.128C301.295 350.128 301.01 350.199 300.583 350.199H299.586V346.495H299.515ZM300.156 347.136V347.991H300.583C300.797 347.991 300.939 347.991 301.01 347.991C301.081 347.991 301.224 347.92 301.224 347.849C301.295 347.777 301.295 347.706 301.295 347.564C301.295 347.421 301.295 347.35 301.224 347.279C301.153 347.208 301.153 347.136 301.081 347.136C301.01 347.136 300.797 347.136 300.512 347.136H300.156ZM300.156 348.561V349.558H300.725C300.939 349.558 301.153 349.558 301.224 349.487C301.295 349.487 301.366 349.415 301.366 349.344C301.438 349.273 301.438 349.202 301.438 349.059C301.438 348.917 301.438 348.846 301.366 348.774C301.295 348.703 301.224 348.632 301.153 348.632C301.081 348.632 300.868 348.561 300.654 348.561H300.156Z" fill="#1B3281"/>
<path d="M305.071 350.199H304.43L304.145 349.344H302.934L302.721 350.199H302.08L303.219 346.495H303.86L305.071 350.199ZM303.931 348.703L303.504 347.35L303.077 348.703H303.931Z" fill="#1B3281"/>
<path d="M307.563 349.558H307.776V350.982H307.278V350.199H305.141V346.495H305.782V349.558H306.993V346.495H307.563V349.558Z" fill="#1B3281"/>
<path d="M308.061 350.199V346.495H308.63V348.917L309.841 346.495H310.482V350.199H309.912V347.777L308.702 350.199H308.061Z" fill="#1B3281"/>
<path d="M310.768 348.347C310.768 347.92 310.839 347.564 310.982 347.279C311.124 346.994 311.267 346.78 311.48 346.638C311.694 346.496 311.908 346.424 312.264 346.424C312.691 346.424 313.047 346.567 313.332 346.923C313.617 347.279 313.759 347.706 313.759 348.347C313.759 348.988 313.617 349.416 313.332 349.772C313.047 350.056 312.762 350.199 312.335 350.199C311.908 350.199 311.551 350.056 311.338 349.772C310.911 349.416 310.768 348.988 310.768 348.347ZM311.409 348.347C311.409 348.775 311.48 349.059 311.623 349.273C311.765 349.487 311.979 349.558 312.192 349.558C312.406 349.558 312.62 349.487 312.762 349.273C312.905 349.059 312.976 348.775 312.976 348.276C312.976 347.849 312.905 347.564 312.762 347.35C312.62 347.137 312.406 347.065 312.192 347.065C311.979 347.065 311.765 347.137 311.623 347.35C311.48 347.564 311.409 347.92 311.409 348.347Z" fill="#1B3281"/>
<path d="M313.973 350.199V346.495H314.614V347.92H315.824V346.495H316.465V350.199H315.824V348.561H314.614V350.199H313.973Z" fill="#1B3281"/>
<path d="M316.821 350.199V346.495H317.462V347.92H318.673V346.495H319.314V350.199H318.673V348.561H317.462V350.199H316.821Z" fill="#1B3281"/>
<path d="M319.599 350.199V346.495H320.24V347.991H321.095C321.38 347.991 321.664 348.062 321.878 348.276C322.092 348.49 322.163 348.774 322.163 349.059C322.163 349.344 322.092 349.558 321.949 349.843C321.807 350.056 321.522 350.199 321.166 350.199H319.599ZM320.24 348.561V349.558H320.881C321.024 349.558 321.166 349.558 321.237 349.558C321.308 349.558 321.38 349.487 321.451 349.415C321.522 349.344 321.522 349.202 321.522 349.131C321.522 348.774 321.308 348.632 320.881 348.632H320.24V348.561ZM322.59 350.199V346.495H323.231V350.199H322.59Z" fill="#1B3281"/>
<path d="M323.587 350.199V346.495H324.157V348.917L325.367 346.495H326.008V350.199H325.439V347.777L324.228 350.199H323.587ZM325.154 345.498H325.439C325.439 345.712 325.367 345.926 325.225 346.068C325.083 346.211 324.94 346.282 324.798 346.282C324.655 346.282 324.442 346.211 324.37 346.068C324.228 345.926 324.157 345.783 324.157 345.498H324.442C324.442 345.712 324.584 345.855 324.798 345.855C325.083 345.855 325.154 345.783 325.154 345.498Z" fill="#1B3281"/>
<path d="M327.077 350.199L328.074 348.276L327.148 346.495H327.861L328.43 347.706L329 346.495H329.712L328.858 348.276L329.855 350.199H329.142L328.502 348.917L327.861 350.199H327.077Z" fill="#1B3281"/>
<path d="M329.997 350.199V346.495H330.567V348.917L331.778 346.495H332.419V350.199H331.849V347.777L330.638 350.199H329.997Z" fill="#1B3281"/>
<path d="M332.845 350.199V346.495H333.771L334.341 348.988L334.911 346.495H335.836V350.199H335.267V347.279L334.697 350.199H334.127L333.557 347.279V350.199H332.845Z" fill="#1B3281"/>
<path d="M336.122 350.199V346.495H336.691V348.917L337.902 346.495H338.543V350.199H337.973V347.777L336.763 350.199H336.122Z" fill="#1B3281"/>
<path d="M338.899 347.777V346.495H339.54V347.493C339.54 347.706 339.54 347.849 339.54 347.92C339.54 347.991 339.612 348.134 339.683 348.205C339.754 348.276 339.896 348.276 340.039 348.276C340.324 348.276 340.466 348.205 340.68 348.062V346.495H341.321V350.199H340.68V348.703C340.466 348.846 340.181 348.917 339.968 348.917C339.612 348.917 339.398 348.846 339.184 348.632C338.971 348.418 338.899 348.134 338.899 347.777Z" fill="#1B3281"/>
<path d="M341.677 350.199V346.495H343.885V347.136H342.247V347.92H343.743V348.561H342.247V349.558H343.956V350.199H341.677Z" fill="#1B3281"/>
<path d="M346.235 348.846L346.805 349.059C346.733 349.487 346.591 349.772 346.377 349.985C346.164 350.199 345.879 350.27 345.594 350.27C345.167 350.27 344.882 350.128 344.668 349.843C344.383 349.487 344.241 348.988 344.241 348.418C344.241 347.777 344.383 347.279 344.668 346.923C344.882 346.638 345.238 346.495 345.665 346.495C346.021 346.495 346.306 346.638 346.52 346.852C346.662 346.994 346.805 347.279 346.876 347.564L346.306 347.706C346.235 347.493 346.164 347.35 346.092 347.279C345.95 347.136 345.879 347.136 345.665 347.136C345.451 347.136 345.238 347.208 345.095 347.421C344.953 347.635 344.882 347.92 344.882 348.347C344.882 348.774 344.953 349.131 345.095 349.344C345.238 349.558 345.38 349.629 345.594 349.629C345.736 349.629 345.879 349.558 346.021 349.415C346.092 349.273 346.164 349.059 346.235 348.846Z" fill="#1B3281"/>
<path d="M347.16 350.199V346.496H347.801V348.062C347.944 348.062 348.015 347.991 348.086 347.92C348.157 347.849 348.228 347.635 348.3 347.35C348.371 347.065 348.442 346.852 348.585 346.709C348.656 346.567 348.798 346.496 348.869 346.496C348.941 346.496 349.154 346.424 349.368 346.424V346.994H349.297C349.154 346.994 349.012 347.065 348.941 347.137C348.869 347.208 348.798 347.35 348.727 347.564C348.656 347.777 348.585 347.92 348.585 347.991C348.513 348.062 348.442 348.134 348.371 348.205C348.513 348.276 348.585 348.347 348.727 348.49C348.798 348.632 348.941 348.846 349.012 349.131L349.439 350.128H348.727L348.371 349.202C348.3 348.988 348.228 348.775 348.157 348.703C348.086 348.632 348.015 348.561 347.872 348.561V350.199H347.16Z" fill="#1B3281"/>
<path d="M349.511 350.199V346.495H350.081V348.917L351.292 346.495H351.933V350.199H351.363V347.777L350.152 350.199H349.511Z" fill="#1B3281"/>
<path d="M352.289 350.199V346.495H352.859V348.917L354.07 346.495H354.711V350.199H354.141V347.777L352.93 350.199H352.289ZM353.856 345.498H354.141C354.141 345.712 354.07 345.926 353.927 346.068C353.785 346.211 353.642 346.282 353.5 346.282C353.357 346.282 353.144 346.211 353.072 346.068C352.93 345.926 352.859 345.783 352.859 345.498H353.144C353.144 345.712 353.286 345.855 353.5 345.855C353.713 345.855 353.856 345.783 353.856 345.498Z" fill="#1B3281"/>
<path d="M355.778 350.199L356.775 348.276L355.849 346.495H356.561L357.131 347.706L357.701 346.495H358.413L357.487 348.276L358.484 350.199H357.772L357.131 348.917L356.49 350.199H355.778Z" fill="#1B3281"/>
<path d="M358.556 348.347C358.556 347.92 358.627 347.564 358.769 347.279C358.912 346.994 359.054 346.78 359.268 346.638C359.482 346.496 359.695 346.424 360.051 346.424C360.479 346.424 360.835 346.567 361.12 346.923C361.404 347.279 361.547 347.706 361.547 348.347C361.547 348.988 361.404 349.416 361.12 349.772C360.835 350.056 360.55 350.199 360.122 350.199C359.695 350.199 359.339 350.056 359.125 349.772C358.698 349.416 358.556 348.988 358.556 348.347ZM359.197 348.347C359.197 348.775 359.268 349.059 359.41 349.273C359.553 349.487 359.766 349.558 359.98 349.558C360.194 349.558 360.407 349.487 360.55 349.273C360.692 349.059 360.763 348.775 360.763 348.276C360.763 347.849 360.692 347.564 360.55 347.35C360.407 347.137 360.194 347.065 359.98 347.065C359.766 347.065 359.553 347.137 359.41 347.35C359.268 347.564 359.197 347.92 359.197 348.347Z" fill="#1B3281"/>
<path d="M363.47 350.199V347.136H362.544V348.703C362.544 349.131 362.544 349.415 362.473 349.629C362.473 349.843 362.402 349.985 362.331 350.056C362.26 350.128 362.117 350.199 361.903 350.199C361.832 350.199 361.69 350.199 361.547 350.199V349.629H361.69C361.832 349.629 361.903 349.629 361.975 349.558C362.046 349.487 362.046 349.415 362.046 349.273V346.567H364.182V350.27H363.47V350.199Z" fill="#1B3281"/>
<path d="M366.817 349.558H367.102V350.982H366.604V350.199H364.681V350.982H364.182V349.558H364.467C364.538 349.273 364.609 348.988 364.681 348.632C364.752 348.276 364.752 347.706 364.752 346.994V346.495H366.817V349.558ZM366.247 347.136H365.322C365.322 348.205 365.25 349.059 365.108 349.558H366.247V347.136Z" fill="#1B3281"/>
<path d="M367.315 350.199V346.495H367.885V348.917L369.096 346.495H369.737V350.199H369.167V347.777L367.956 350.199H367.315Z" fill="#1B3281"/>
<path d="M370.165 350.199V346.495H370.806V347.92H372.016V346.495H372.657V350.199H372.016V348.561H370.806V350.199H370.165Z" fill="#1B3281"/>
<path d="M372.942 350.199V346.567H375.079V347.208H373.583V350.199H372.942Z" fill="#1B3281"/>
<rect x="195.564" y="543.419" width="123.779" height="1" transform="rotate(-60 195.564 543.419)" fill="#1B3281"/>
<rect width="119.278" height="1" transform="matrix(-0.5 0.866025 0.866025 0.5 71.0479 327.757)" fill="#1B3281"/>
<path d="M16.7373 436.455L13.2004 442.581L6.12646 442.581L2.58951 436.455L6.12646 430.329L13.2004 430.329L16.7373 436.455Z" fill="#1B3281"/>
<path d="M15.1479 652.426L11.611 658.552L4.5371 658.552L1.00016 652.426L4.5371 646.3L11.611 646.3L15.1479 652.426Z" fill="#1B3281"/>
<path d="M194.82 545L70.3203 545L9.32031 651.5" stroke="#1B3281"/>
<path d="M383 435.5L507.25 651.07L629.982 650.647" stroke="#1B3281"/>
<rect width="119.278" height="1" transform="matrix(0.5 0.866025 0.866025 -0.5 194.925 543.904)" fill="#1B3281"/>
<path d="M254.831 657.539L251.294 651.413L254.831 645.287L261.905 645.287L265.442 651.413L261.905 657.539L254.831 657.539Z" fill="#1B3281"/>
<rect x="445.973" y="114.39" width="124.562" height="1" transform="rotate(120 445.973 114.39)" fill="#1B3281"/>
<rect width="119.278" height="1" transform="matrix(-0.5 -0.866025 -0.866025 0.5 446.22 114.583)" fill="#1B3281"/>
<path d="M389.851 7.07377L386.314 13.1999L379.24 13.1999L375.703 7.07377L379.24 0.9476L386.314 0.9476L389.851 7.07377Z" fill="#1B3281"/>
<path d="M623 651.074L626.537 644.948L633.611 644.948L637.148 651.074L633.611 657.2L626.537 657.2L623 651.074Z" fill="#1B3281"/>
<rect x="71.0479" y="329.006" width="119.278" height="1" transform="rotate(-120 71.0479 329.006)" fill="#1B3281"/>
<path d="M13.1999 226.434L16.7369 220.308L13.1999 214.182L6.12601 214.182L2.58906 220.308L6.12601 226.434L13.1999 226.434Z" fill="#1B3281"/>
<rect width="127.33" height="1" transform="matrix(-1 0 0 1 571.412 327.757)" fill="#1B3281"/>
<rect x="571.104" y="327.757" width="119.278" height="1" transform="rotate(60 571.104 327.757)" fill="#1B3281"/>
<path d="M628.951 430.329L625.414 436.455L628.951 442.581L636.025 442.581L639.562 436.455L636.025 430.329L628.951 430.329Z" fill="#1B3281"/>
<rect width="119.278" height="1" transform="matrix(0.5 -0.866025 -0.866025 -0.5 571.104 329.006)" fill="#1B3281"/>
<path d="M625.414 220.308L628.951 214.182L636.025 214.182L639.562 220.308L636.025 226.434L628.951 226.434L625.414 220.308Z" fill="#1B3281"/>
<path d="M624.671 7.07393L628.208 0.947756L635.282 0.947756L638.819 7.07393L635.282 13.2001L628.208 13.2001L624.671 7.07393Z" fill="#1B3281"/>
<path d="M445 114.5H569.5L630.5 8" stroke="#1B3281"/>
</svg>
