<svg width="1440" height="327" viewBox="0 0 1440 327" fill="none" xmlns="http://www.w3.org/2000/svg">
<mask id="mask0_194_4987" style="mask-type:alpha" maskUnits="userSpaceOnUse" x="0" y="0" width="1440" height="327">
<path d="M0 0H720H1440V327H0V0Z" fill="#1B3281"/>
</mask>
<g mask="url(#mask0_194_4987)">
<path d="M743.026 317L758.974 317L767 331L758.974 345L742.923 345L735 331L743.026 317ZM758.46 344.067L765.868 331L758.46 318.037L743.54 318.037L736.132 331L743.54 343.963L758.46 343.963L758.46 344.067Z" fill="white" fill-opacity="0.2"/>
<path d="M768 220L760 234L744 234L736 220L744 206L760 206L768 220ZM744.615 206.933L737.231 220L744.615 232.963L759.385 232.963L766.769 220L759.385 207.037L744.615 207.037L744.615 206.933Z" fill="white" fill-opacity="0.2"/>
<path d="M629.275 288L605.725 288L594 267.5L605.725 247L629.275 247L641 267.5L629.275 288ZM606.336 248.025L595.121 267.5L606.336 286.975L628.664 286.975L639.879 267.5L628.664 248.025L606.336 248.025Z" fill="white" fill-opacity="0.2"/>
<path d="M754.898 241.201L754.898 242.215L738.861 242.519L720.59 267.777L739.064 310.481L755 310.481L755 311.495L739.064 311.495L732.466 326L731.553 325.594L738.15 310.886L719.677 268.081L647 268.081L647 267.067L719.778 267.067L738.049 241.809L731.147 227.406L732.06 227L738.962 241.404L754.898 241.201Z" fill="white" fill-opacity="0.2"/>
<path d="M603.119 292.18L584.486 333.088L583.561 332.666L602.194 291.759L603.119 292.18Z" fill="white" fill-opacity="0.2"/>
<path d="M411.787 273.032L415.452 266.737L438.966 266.737L450.672 287.043L444.564 297.602C456.983 319.127 469.401 340.651 481.922 362.074L484.161 362.074L488.029 368.775L525.183 368.775C531.393 358.114 537.5 347.453 543.709 336.894L581.27 336.894C587.581 347.656 593.791 358.52 600 369.282C594.707 378.522 589.312 387.761 583.917 397L582.797 397L598.779 369.282L580.558 337.808L544.218 337.808L525.998 369.282L542.081 397L540.961 397C535.668 387.964 530.476 378.826 525.183 369.79L488.64 369.79L488.742 369.993L484.161 377.912L481.413 377.912C477.647 384.309 473.982 390.705 470.318 397L469.198 397L480.191 378.014L474.898 378.014L473.779 376.085C469.707 383.09 465.737 389.994 461.665 397L460.546 397L473.27 375.07L470.318 369.993L473.473 364.51L439.577 306.029L438.864 307.248L415.35 307.248L403.644 286.942L406.901 281.357L349.593 281.357L350.814 283.388L332.085 315.776L303.481 315.776L276.608 362.175L281.087 369.892L276.914 377.1L288.213 397L287.093 397C283.428 390.705 279.764 384.309 276.099 378.014L268.567 378.014L279.56 397L278.339 397C274.674 390.705 271.01 384.309 267.345 378.014L267.04 378.014L262.765 370.501L225 370.501L225 369.485L262.561 369.485C273.046 351.312 283.53 333.239 294.015 315.065L275.692 283.388L294.422 251L331.983 251L344.707 272.93L411.787 272.93L411.787 273.032ZM449.552 286.942L438.355 267.651L416.063 267.651L413.009 272.93L430.314 272.93C434.894 280.748 439.373 288.668 443.954 296.485L449.552 286.942ZM412.398 273.946L408.632 280.444L425.937 280.444C430.517 288.363 434.996 296.181 439.577 304.1L443.343 297.602L429.703 274.047L412.398 274.047L412.398 273.946ZM474.084 363.495L474.898 362.074L480.7 362.074L443.954 298.516L440.187 305.014C451.486 324.508 462.785 344.001 474.084 363.495ZM404.866 286.942L416.063 306.232L438.355 306.232L439.068 305.014L425.428 281.459L408.123 281.459L404.866 286.942ZM407.512 280.444L411.279 273.946L345.318 273.946L349.084 280.444L407.512 280.444ZM347.862 280.444L344.096 273.946L319.055 273.946L295.338 314.862L302.871 314.862C309.487 303.389 316.205 291.917 322.822 280.444L347.862 280.444ZM331.372 314.964L349.593 283.49L348.371 281.459L323.331 281.459L303.99 314.964L331.372 314.964ZM294.727 315.878L268.058 362.074L275.59 362.074C284.446 346.641 293.404 331.31 302.26 315.878L294.727 315.878ZM331.372 252.015L295.033 252.015L276.812 283.49L294.524 314.152C302.463 300.445 310.403 286.739 318.343 272.93L343.384 272.93L331.372 252.015Z" fill="white" fill-opacity="0.2"/>
<path d="M75 337.028L75 310.972L97.5 298L120 310.972L120 337.028L97.5 350L75 337.028ZM118.875 311.649L97.5 299.241L76.125 311.649L76.125 336.351L97.5 348.759L118.875 336.351L118.875 311.649Z" fill="white" fill-opacity="0.2"/>
<path d="M69.8933 308.128L24.2739 287.349L24.744 286.317L70.3634 307.096L69.8933 308.128Z" fill="white" fill-opacity="0.2"/>
<path d="M91.4027 95.2058L98.4305 99.2905L98.4305 125.501L75.7601 138.549L63.9715 131.741C39.9409 145.584 15.9103 159.426 -8.00694 173.382L-8.00694 175.878L-15.4882 180.19L-15.4882 221.604C-3.58623 228.526 8.31572 235.333 20.1043 242.255L20.1043 284.123C8.08901 291.157 -4.03964 298.079 -16.0549 305C-26.37 299.1 -36.685 293.086 -47 287.073L-47 285.825L-16.0549 303.638L19.0841 283.328L19.0841 242.822L-16.0549 222.512L-47 240.439L-47 239.191C-36.9117 233.291 -26.71 227.504 -16.6217 221.604L-16.6217 180.871L-16.8484 180.984L-25.6898 175.878L-25.6898 172.815C-32.831 168.617 -39.9722 164.532 -47 160.447L-47 159.199L-25.8032 171.453L-25.8032 165.553L-23.6495 164.305C-31.4708 159.767 -39.1787 155.341 -47 150.803L-47 149.555L-22.516 163.738L-16.8484 160.447L-10.7274 163.965L54.5633 126.181L53.2031 125.387L53.2031 99.177L75.8734 86.1287L82.1078 89.7595L82.1078 25.8795L79.8408 27.2411L43.6815 6.36375L43.6815 -25.5195L-8.12028 -55.4739L-16.735 -50.4815L-24.783 -55.1335L-47 -42.539L-47 -43.7872C-39.9722 -47.8719 -32.831 -51.9565 -25.8032 -56.0412L-25.8032 -64.4375L-47 -52.1834L-47 -53.545C-39.9722 -57.6297 -32.831 -61.7144 -25.8032 -65.7991L-25.8032 -66.1395L-17.4151 -70.9049L-17.4151 -113L-16.2816 -113L-16.2816 -71.1319C4.00837 -59.4451 24.185 -47.7584 44.475 -36.0716L79.8408 -56.495L116 -35.6178L116 6.25032L91.516 20.4333L91.516 95.2058L91.4027 95.2058ZM75.8734 137.301L97.4103 124.82L97.4103 99.9713L91.516 96.5673L91.516 115.856C82.7879 120.962 73.9465 125.954 65.2184 131.06L75.8734 137.301ZM90.3825 95.8866L83.128 91.6884L83.128 110.977C74.2865 116.083 65.5584 121.075 56.717 126.181L63.9715 130.379L90.2691 115.175L90.2691 95.8866L90.3825 95.8866ZM-9.59387 164.646L-8.00694 165.553L-8.00694 172.021L62.9513 131.06L55.6968 126.862C33.9332 139.457 12.1697 152.051 -9.59387 164.646ZM75.8734 87.4903L54.3366 99.9713L54.3366 124.82L55.6968 125.614L81.9944 110.41L81.9944 91.1211L75.8734 87.4903ZM83.128 90.4403L90.3825 94.6385L90.3825 21.1141L83.128 25.3122L83.128 90.4403ZM83.128 23.9506L90.3825 19.7525L90.3825 -8.15956L44.7017 -34.5966L44.7017 -26.2003C57.5105 -18.8252 70.3192 -11.3365 83.128 -3.96141L83.128 23.9506ZM44.5883 5.5695L79.7274 25.8795L81.9945 24.518L81.9945 -3.39409L44.5883 -24.9522L44.5883 5.5695ZM43.5682 -35.2774L-8.00692 -65.0048L-8.00692 -56.6085C9.22256 -46.7372 26.3387 -36.7524 43.5682 -26.8811L43.5682 -35.2774ZM114.866 5.5695L114.867 -34.937L79.7274 -55.247L45.4952 -35.5043C60.7977 -26.6541 76.1002 -17.804 91.516 -8.95381L91.516 18.9582L114.866 5.5695Z" fill="white" fill-opacity="0.2"/>
</g>
</svg>
