<svg width="126" height="160" viewBox="0 0 126 160" fill="none" xmlns="http://www.w3.org/2000/svg">
<path d="M25.3271 35.5138H1V31.431H25.3271C27.7088 31.431 29.9204 30.9206 31.4514 30.07C33.1526 29.2194 34.3435 27.8584 35.3642 26.1573C36.2148 24.4561 36.7252 22.5847 36.7252 20.5433C36.7252 18.5019 36.2148 16.6305 35.3642 14.9293C34.5136 13.2281 33.1526 12.0373 31.4514 11.0166C29.7502 10.166 27.7088 9.65563 25.3271 9.65563H13.2486V56.2685H8.48527V5.57275H25.3271C28.7295 5.57275 31.7917 6.25323 34.0032 7.61419C36.3849 8.97515 38.0861 10.6763 39.277 13.058C40.4678 15.2696 41.1483 17.8214 41.1483 20.7134C41.1483 23.4353 40.4678 25.9871 39.277 28.3688C38.0861 30.5804 36.2148 32.4517 34.0032 33.8126C31.7917 34.8334 28.7295 35.5138 25.3271 35.5138ZM25.157 40.2772V44.3601H1V40.2772H25.157Z" fill="#1B3281"/>
<path d="M82.998 158H123.146V137.245H82.998V158Z" stroke="#1B3281" stroke-width="4" stroke-miterlimit="10"/>
<path d="M42.6777 158H82.826V137.245H42.6777V158Z" stroke="#1B3281" stroke-width="4" stroke-miterlimit="10"/>
<path d="M82.998 137.245H123.146V116.49H82.998V137.245Z" stroke="#1B3281" stroke-width="4" stroke-miterlimit="10"/>
<path d="M42.6777 137.245H82.826V116.49H42.6777V137.245Z" stroke="#1B3281" stroke-width="4" stroke-miterlimit="10"/>
<path d="M82.998 116.491H123.146V95.7361H82.998V116.491Z" stroke="#1B3281" stroke-width="4" stroke-miterlimit="10"/>
<path d="M2.5332 158H42.6815V137.245H2.5332V158Z" stroke="#1B3281" stroke-width="4" stroke-miterlimit="10"/>
<path d="M97.9668 2H123.145V27.0076" stroke="#1B3281" stroke-width="4" stroke-miterlimit="10"/>
<path d="M123.146 3.36108L82.9979 35.854V71.7493H42.6795L2.53125 100.67" stroke="#1B3281" stroke-width="4" stroke-miterlimit="10"/>
</svg>
