<svg width="150" height="167" viewBox="0 0 150 167" fill="none" xmlns="http://www.w3.org/2000/svg">
<path d="M68 42L68 67.5512L108.132 96L148 67.5512L148 42" stroke="white" stroke-width="4" stroke-miterlimit="10"/>
<path d="M68 55L68 30.2745L108.132 3L148 30.2745L148 55" stroke="white" stroke-width="4" stroke-miterlimit="10"/>
<path d="M2 110L2 135.551L42.132 164L82 135.551L82 110" stroke="white" stroke-width="4" stroke-miterlimit="10"/>
<path d="M2 125L2 99.1854L42.132 71L82 99.1854L82 125" stroke="white" stroke-width="4" stroke-miterlimit="10"/>
<path d="M104 135L104 148.723L125.867 164L148 148.723L148 135" stroke="white" stroke-width="4" stroke-miterlimit="10"/>
<path d="M104 143L104 128.676L125.867 113L148 128.676L148 143" stroke="white" stroke-width="4" stroke-miterlimit="10"/>
</svg>
