<svg width="101" height="165" viewBox="0 0 101 165" fill="none" xmlns="http://www.w3.org/2000/svg">
<path d="M2 163H98.6003V141.445H2V163Z" stroke="#1B3281" stroke-width="4" stroke-miterlimit="10"/>
<path d="M13.0195 77H45.0195V24H13.0195V77Z" stroke="#1B3281" stroke-width="4" stroke-miterlimit="10"/>
<path d="M17.9668 23.5554H39.5222V2H17.9668V23.5554Z" stroke="#1B3281" stroke-width="4" stroke-miterlimit="10"/>
<path d="M18.0195 99H39.0195V77H18.0195V99Z" stroke="#1B3281" stroke-width="4" stroke-miterlimit="10"/>
<path d="M44.9297 141.622V120.066H55.5744C67.5496 120.066 77.1298 110.486 77.1298 98.511C77.1298 86.5358 67.5496 76.9556 55.5744 76.9556H44.9297V55.4001H55.5744C79.2587 55.4001 98.4191 74.5605 98.4191 98.2449C98.4191 121.929 79.2587 141.09 55.5744 141.09H44.9297V141.622Z" stroke="#1B3281" stroke-width="4" stroke-miterlimit="10"/>
<path d="M2.00195 119.978H44.8467" stroke="#1B3281" stroke-width="4" stroke-miterlimit="10"/>
</svg>
